<svg id="ecLA41mh3Hp1" xmlns="http://www.w3.org/2000/svg" xmlns:xlink="http://www.w3.org/1999/xlink" viewBox="0 0 713 901" shape-rendering="geometricPrecision" text-rendering="geometricPrecision"><style><![CDATA[#ecLA41mh3Hp4 {animation: ecLA41mh3Hp4__tt 3000ms linear 1 normal forwards}@keyframes ecLA41mh3Hp4__tt { 0% {transform: translate(-230.792340px,466.870500px) translate(-224.305489px,-466.870499px)} 40% {transform: translate(-230.792340px,466.870500px) translate(-224.305489px,-466.870499px)} 63.333333% {transform: translate(-230.792340px,466.870500px) translate(230.792340px,-466.870500px)} 100% {transform: translate(-230.792340px,466.870500px) translate(230.792340px,-466.870500px)}} #ecLA41mh3Hp6_to {animation: ecLA41mh3Hp6_to__to 3000ms linear 1 normal forwards}@keyframes ecLA41mh3Hp6_to__to { 0% {transform: translate(-461.631726px,652.661598px)} 60% {transform: translate(-461.631726px,652.661598px)} 76.666667% {transform: translate(338.748985px,654.740509px)} 88.333333% {transform: translate(559.506000px,654.740500px)} 100% {transform: translate(559.506000px,654.740500px)}} #ecLA41mh3Hp8_ts {animation: ecLA41mh3Hp8_ts__ts 3000ms linear 1 normal forwards}@keyframes ecLA41mh3Hp8_ts__ts { 0% {transform: translate(367.563500px,132.950000px) scale(2.840166,2.979253)} 33.333333% {transform: translate(367.563500px,132.950000px) scale(1,1)} 100% {transform: translate(367.563500px,132.950000px) scale(1,1)}}]]></style><g id="ecLA41mh3Hp2"><rect id="ecLA41mh3Hp3" width="697" height="879" rx="20.072500" ry="20.072500" transform="matrix(1 0 0 1 8 9.57422000000003)" fill="rgb(27,28,29)" stroke="none" stroke-width="1"/></g><g id="ecLA41mh3Hp4" transform="translate(-230.792340,466.870500) translate(-224.305489,-466.870499)"><path id="ecLA41mh3Hp5" d="M142.488000,475.706000L137.290000,475.706000L125.522000,457.923000L125.522000,475.706000L120.324000,475.706000L120.324000,449.756000L125.522000,449.756000L137.290000,467.576000L137.290000,449.756000L142.488000,449.756000L142.488000,475.706000ZM166.743000,464.977000C166.743000,465.720000,166.693000,466.388000,166.594000,466.982000L151.559000,466.982000C151.683000,468.467000,152.203000,469.630000,153.118000,470.472000C154.034000,471.313000,155.160000,471.734000,156.497000,471.734000C158.427000,471.734000,159.801000,470.905000,160.617000,469.246000L166.223000,469.246000C165.629000,471.226000,164.491000,472.860000,162.808000,474.147000C161.125000,475.409000,159.058000,476.040000,156.608000,476.040000C154.628000,476.040000,152.846000,475.607000,151.262000,474.741000C149.703000,473.850000,148.478000,472.600000,147.587000,470.991000C146.721000,469.383000,146.287000,467.526000,146.287000,465.423000C146.287000,463.294000,146.721000,461.426000,147.587000,459.817000C148.453000,458.208000,149.666000,456.971000,151.225000,456.104000C152.784000,455.238000,154.579000,454.805000,156.608000,454.805000C158.563000,454.805000,160.308000,455.226000,161.843000,456.067000C163.402000,456.909000,164.602000,458.109000,165.444000,459.668000C166.310000,461.203000,166.743000,462.972000,166.743000,464.977000ZM161.360000,463.492000C161.335000,462.156000,160.853000,461.091000,159.912000,460.299000C158.972000,459.483000,157.821000,459.074000,156.459000,459.074000C155.173000,459.074000,154.084000,459.470000,153.193000,460.262000C152.326000,461.030000,151.794000,462.106000,151.596000,463.492000L161.360000,463.492000ZM189.656000,464.977000C189.656000,465.720000,189.606000,466.388000,189.507000,466.982000L174.472000,466.982000C174.596000,468.467000,175.115000,469.630000,176.031000,470.472000C176.947000,471.313000,178.073000,471.734000,179.409000,471.734000C181.340000,471.734000,182.713000,470.905000,183.530000,469.246000L189.136000,469.246000C188.542000,471.226000,187.403000,472.860000,185.721000,474.147000C184.038000,475.409000,181.971000,476.040000,179.521000,476.040000C177.541000,476.040000,175.759000,475.607000,174.175000,474.741000C172.616000,473.850000,171.390000,472.600000,170.499000,470.991000C169.633000,469.383000,169.200000,467.526000,169.200000,465.423000C169.200000,463.294000,169.633000,461.426000,170.499000,459.817000C171.366000,458.208000,172.578000,456.971000,174.138000,456.104000C175.697000,455.238000,177.491000,454.805000,179.521000,454.805000C181.476000,454.805000,183.221000,455.226000,184.755000,456.067000C186.314000,456.909000,187.515000,458.109000,188.356000,459.668000C189.223000,461.203000,189.656000,462.972000,189.656000,464.977000ZM184.273000,463.492000C184.248000,462.156000,183.765000,461.091000,182.825000,460.299000C181.884000,459.483000,180.733000,459.074000,179.372000,459.074000C178.085000,459.074000,176.996000,459.470000,176.105000,460.262000C175.239000,461.030000,174.707000,462.106000,174.509000,463.492000L184.273000,463.492000ZM192.113000,465.348000C192.113000,463.269000,192.521000,461.426000,193.338000,459.817000C194.179000,458.208000,195.318000,456.971000,196.753000,456.104000C198.189000,455.238000,199.785000,454.805000,201.542000,454.805000C202.879000,454.805000,204.154000,455.102000,205.366000,455.696000C206.579000,456.265000,207.544000,457.032000,208.262000,457.998000L208.262000,448.234000L213.534000,448.234000L213.534000,475.706000L208.262000,475.706000L208.262000,472.662000C207.619000,473.677000,206.715000,474.493000,205.552000,475.112000C204.389000,475.731000,203.040000,476.040000,201.505000,476.040000C199.773000,476.040000,198.189000,475.595000,196.753000,474.704000C195.318000,473.813000,194.179000,472.563000,193.338000,470.954000C192.521000,469.321000,192.113000,467.452000,192.113000,465.348000ZM208.299000,465.423000C208.299000,464.160000,208.052000,463.084000,207.557000,462.193000C207.062000,461.277000,206.393000,460.584000,205.552000,460.114000C204.710000,459.619000,203.807000,459.371000,202.842000,459.371000C201.877000,459.371000,200.986000,459.606000,200.169000,460.077000C199.352000,460.547000,198.684000,461.240000,198.164000,462.156000C197.669000,463.047000,197.422000,464.111000,197.422000,465.348000C197.422000,466.586000,197.669000,467.675000,198.164000,468.615000C198.684000,469.531000,199.352000,470.236000,200.169000,470.731000C201.010000,471.226000,201.901000,471.474000,202.842000,471.474000C203.807000,471.474000,204.710000,471.239000,205.552000,470.769000C206.393000,470.274000,207.062000,469.581000,207.557000,468.690000C208.052000,467.774000,208.299000,466.685000,208.299000,465.423000ZM248.951000,449.793000L248.951000,475.706000L243.754000,475.706000L243.754000,464.680000L232.653000,464.680000L232.653000,475.706000L227.456000,475.706000L227.456000,449.793000L232.653000,449.793000L232.653000,460.448000L243.754000,460.448000L243.754000,449.793000L248.951000,449.793000ZM273.186000,464.977000C273.186000,465.720000,273.136000,466.388000,273.037000,466.982000L258.002000,466.982000C258.126000,468.467000,258.645000,469.630000,259.561000,470.472000C260.477000,471.313000,261.603000,471.734000,262.939000,471.734000C264.870000,471.734000,266.243000,470.905000,267.060000,469.246000L272.666000,469.246000C272.072000,471.226000,270.933000,472.860000,269.251000,474.147000C267.568000,475.409000,265.501000,476.040000,263.051000,476.040000C261.071000,476.040000,259.289000,475.607000,257.705000,474.741000C256.146000,473.850000,254.920000,472.600000,254.029000,470.991000C253.163000,469.383000,252.730000,467.526000,252.730000,465.423000C252.730000,463.294000,253.163000,461.426000,254.029000,459.817000C254.896000,458.208000,256.108000,456.971000,257.668000,456.104000C259.227000,455.238000,261.021000,454.805000,263.051000,454.805000C265.006000,454.805000,266.751000,455.226000,268.285000,456.067000C269.845000,456.909000,271.045000,458.109000,271.886000,459.668000C272.753000,461.203000,273.186000,462.972000,273.186000,464.977000ZM267.803000,463.492000C267.778000,462.156000,267.295000,461.091000,266.355000,460.299000C265.414000,459.483000,264.263000,459.074000,262.902000,459.074000C261.615000,459.074000,260.526000,459.470000,259.635000,460.262000C258.769000,461.030000,258.237000,462.106000,258.039000,463.492000L267.803000,463.492000ZM282.177000,448.234000L282.177000,475.706000L276.979000,475.706000L276.979000,448.234000L282.177000,448.234000ZM292.509000,458.109000C293.177000,457.169000,294.093000,456.389000,295.256000,455.770000C296.444000,455.127000,297.793000,454.805000,299.303000,454.805000C301.060000,454.805000,302.644000,455.238000,304.055000,456.104000C305.490000,456.971000,306.617000,458.208000,307.433000,459.817000C308.275000,461.401000,308.696000,463.245000,308.696000,465.348000C308.696000,467.452000,308.275000,469.321000,307.433000,470.954000C306.617000,472.563000,305.490000,473.813000,304.055000,474.704000C302.644000,475.595000,301.060000,476.040000,299.303000,476.040000C297.793000,476.040000,296.457000,475.731000,295.294000,475.112000C294.155000,474.493000,293.227000,473.714000,292.509000,472.773000L292.509000,485.507000L287.312000,485.507000L287.312000,455.139000L292.509000,455.139000L292.509000,458.109000ZM303.387000,465.348000C303.387000,464.111000,303.127000,463.047000,302.607000,462.156000C302.112000,461.240000,301.444000,460.547000,300.602000,460.077000C299.786000,459.606000,298.895000,459.371000,297.929000,459.371000C296.989000,459.371000,296.098000,459.619000,295.256000,460.114000C294.440000,460.584000,293.771000,461.277000,293.252000,462.193000C292.757000,463.108000,292.509000,464.185000,292.509000,465.423000C292.509000,466.660000,292.757000,467.737000,293.252000,468.652000C293.771000,469.568000,294.440000,470.274000,295.256000,470.769000C296.098000,471.239000,296.989000,471.474000,297.929000,471.474000C298.895000,471.474000,299.786000,471.226000,300.602000,470.731000C301.444000,470.236000,302.112000,469.531000,302.607000,468.615000C303.127000,467.700000,303.387000,466.611000,303.387000,465.348000ZM319.712000,448.902000C322.286000,448.902000,324.352000,449.608000,325.911000,451.018000C327.495000,452.404000,328.287000,454.322000,328.287000,456.773000C328.287000,459.198000,327.508000,461.054000,325.949000,462.341000C324.389000,463.603000,322.323000,464.235000,319.749000,464.235000L319.600000,467.093000L315.034000,467.093000L314.848000,460.782000L316.519000,460.782000C318.672000,460.782000,320.330000,460.497000,321.494000,459.928000C322.657000,459.359000,323.238000,458.319000,323.238000,456.810000C323.238000,455.721000,322.917000,454.854000,322.273000,454.211000C321.654000,453.568000,320.801000,453.246000,319.712000,453.246000C318.573000,453.246000,317.682000,453.555000,317.039000,454.174000C316.420000,454.793000,316.111000,455.646000,316.111000,456.735000L311.210000,456.735000C311.185000,455.226000,311.507000,453.877000,312.175000,452.689000C312.844000,451.501000,313.821000,450.573000,315.108000,449.905000C316.420000,449.236000,317.954000,448.902000,319.712000,448.902000ZM317.299000,475.966000C316.358000,475.966000,315.578000,475.681000,314.960000,475.112000C314.366000,474.518000,314.069000,473.788000,314.069000,472.922000C314.069000,472.055000,314.366000,471.338000,314.960000,470.769000C315.578000,470.175000,316.358000,469.878000,317.299000,469.878000C318.214000,469.878000,318.969000,470.175000,319.563000,470.769000C320.157000,471.338000,320.454000,472.055000,320.454000,472.922000C320.454000,473.788000,320.157000,474.518000,319.563000,475.112000C318.969000,475.681000,318.214000,475.966000,317.299000,475.966000Z" fill="rgb(197,212,215)" stroke="none" stroke-width="1"/></g><g id="ecLA41mh3Hp6_to" transform="translate(-461.631726,652.661598)"><g id="ecLA41mh3Hp6" transform="translate(-559.506000,-654.740500)"><path id="ecLA41mh3Hp7" d="M131.516000,529.353000L131.516000,544.614000C131.516000,546.503000,130.938000,547.995000,129.780000,549.092000C128.643000,550.188000,127.140000,550.737000,125.272000,550.737000C123.404000,550.737000,121.891000,550.188000,120.733000,549.092000C119.596000,547.995000,119.027000,546.503000,119.027000,544.614000L122.530000,544.614000C122.551000,545.548000,122.784000,546.289000,123.231000,546.838000C123.698000,547.386000,124.378000,547.660000,125.272000,547.660000C126.165000,547.660000,126.846000,547.386000,127.313000,546.838000C127.780000,546.269000,128.013000,545.528000,128.013000,544.614000L128.013000,529.353000L131.516000,529.353000ZM152.366000,533.739000L152.366000,550.523000L148.893000,550.523000L148.893000,548.543000C148.345000,549.234000,147.624000,549.782000,146.730000,550.188000C145.857000,550.574000,144.923000,550.767000,143.928000,550.767000C142.608000,550.767000,141.420000,550.493000,140.364000,549.945000C139.328000,549.396000,138.506000,548.584000,137.897000,547.508000C137.308000,546.431000,137.013000,545.132000,137.013000,543.609000L137.013000,533.739000L140.455000,533.739000L140.455000,543.091000C140.455000,544.594000,140.831000,545.751000,141.582000,546.563000C142.334000,547.355000,143.359000,547.751000,144.659000,547.751000C145.959000,547.751000,146.984000,547.355000,147.735000,546.563000C148.507000,545.751000,148.893000,544.594000,148.893000,543.091000L148.893000,533.739000L152.366000,533.739000ZM163.040000,550.798000C161.720000,550.798000,160.532000,550.564000,159.476000,550.097000C158.440000,549.610000,157.617000,548.960000,157.008000,548.147000C156.399000,547.315000,156.074000,546.391000,156.033000,545.376000L159.628000,545.376000C159.689000,546.086000,160.024000,546.685000,160.633000,547.173000C161.263000,547.640000,162.044000,547.873000,162.979000,547.873000C163.953000,547.873000,164.705000,547.691000,165.233000,547.325000C165.781000,546.939000,166.055000,546.452000,166.055000,545.863000C166.055000,545.233000,165.751000,544.766000,165.141000,544.462000C164.552000,544.157000,163.608000,543.822000,162.308000,543.456000C161.049000,543.111000,160.024000,542.776000,159.232000,542.451000C158.440000,542.126000,157.749000,541.629000,157.161000,540.959000C156.592000,540.289000,156.308000,539.405000,156.308000,538.309000C156.308000,537.415000,156.572000,536.603000,157.100000,535.872000C157.628000,535.120000,158.379000,534.531000,159.354000,534.105000C160.349000,533.678000,161.486000,533.465000,162.765000,533.465000C164.674000,533.465000,166.207000,533.953000,167.365000,534.927000C168.543000,535.882000,169.172000,537.192000,169.254000,538.857000L165.781000,538.857000C165.720000,538.105000,165.415000,537.506000,164.867000,537.060000C164.319000,536.613000,163.578000,536.389000,162.644000,536.389000C161.730000,536.389000,161.029000,536.562000,160.542000,536.907000C160.054000,537.253000,159.811000,537.709000,159.811000,538.278000C159.811000,538.725000,159.973000,539.101000,160.298000,539.405000C160.623000,539.710000,161.019000,539.953000,161.486000,540.136000C161.953000,540.299000,162.644000,540.512000,163.557000,540.776000C164.776000,541.101000,165.771000,541.436000,166.543000,541.781000C167.335000,542.106000,168.015000,542.593000,168.583000,543.243000C169.152000,543.893000,169.446000,544.756000,169.467000,545.832000C169.467000,546.787000,169.203000,547.640000,168.675000,548.391000C168.147000,549.143000,167.395000,549.731000,166.421000,550.158000C165.466000,550.584000,164.339000,550.798000,163.040000,550.798000ZM177.270000,536.572000L177.270000,545.863000C177.270000,546.492000,177.412000,546.949000,177.697000,547.234000C178.001000,547.498000,178.509000,547.630000,179.220000,547.630000L181.352000,547.630000L181.352000,550.523000L178.611000,550.523000C177.047000,550.523000,175.849000,550.158000,175.016000,549.427000C174.184000,548.696000,173.767000,547.508000,173.767000,545.863000L173.767000,536.572000L171.787000,536.572000L171.787000,533.739000L173.767000,533.739000L173.767000,529.566000L177.270000,529.566000L177.270000,533.739000L181.352000,533.739000L181.352000,536.572000L177.270000,536.572000ZM191.308000,542.055000C191.308000,540.370000,191.653000,538.877000,192.344000,537.577000C193.054000,536.278000,194.009000,535.273000,195.207000,534.562000C196.425000,533.831000,197.776000,533.465000,199.258000,533.465000C200.355000,533.465000,201.431000,533.709000,202.487000,534.196000C203.563000,534.663000,204.416000,535.293000,205.046000,536.085000L205.046000,527.982000L208.549000,527.982000L208.549000,550.523000L205.046000,550.523000L205.046000,547.995000C204.477000,548.807000,203.685000,549.478000,202.670000,550.006000C201.675000,550.534000,200.527000,550.798000,199.228000,550.798000C197.766000,550.798000,196.425000,550.432000,195.207000,549.701000C194.009000,548.950000,193.054000,547.914000,192.344000,546.594000C191.653000,545.254000,191.308000,543.741000,191.308000,542.055000ZM205.046000,542.116000C205.046000,540.959000,204.802000,539.953000,204.315000,539.101000C203.848000,538.248000,203.228000,537.598000,202.457000,537.151000C201.685000,536.704000,200.852000,536.481000,199.959000,536.481000C199.065000,536.481000,198.233000,536.704000,197.461000,537.151000C196.689000,537.577000,196.060000,538.217000,195.572000,539.070000C195.105000,539.903000,194.872000,540.898000,194.872000,542.055000C194.872000,543.213000,195.105000,544.228000,195.572000,545.101000C196.060000,545.975000,196.689000,546.645000,197.461000,547.112000C198.253000,547.559000,199.086000,547.782000,199.959000,547.782000C200.852000,547.782000,201.685000,547.559000,202.457000,547.112000C203.228000,546.665000,203.848000,546.015000,204.315000,545.162000C204.802000,544.289000,205.046000,543.274000,205.046000,542.116000ZM216.582000,536.176000C217.090000,535.323000,217.760000,534.663000,218.593000,534.196000C219.446000,533.709000,220.451000,533.465000,221.609000,533.465000L221.609000,537.060000L220.725000,537.060000C219.365000,537.060000,218.329000,537.405000,217.618000,538.095000C216.928000,538.786000,216.582000,539.984000,216.582000,541.690000L216.582000,550.523000L213.110000,550.523000L213.110000,533.739000L216.582000,533.739000L216.582000,536.176000ZM232.081000,550.798000C230.497000,550.798000,229.065000,550.442000,227.786000,549.731000C226.506000,549,225.501000,547.985000,224.770000,546.685000C224.039000,545.365000,223.673000,543.842000,223.673000,542.116000C223.673000,540.410000,224.049000,538.897000,224.801000,537.577000C225.552000,536.257000,226.577000,535.242000,227.877000,534.531000C229.177000,533.821000,230.629000,533.465000,232.233000,533.465000C233.837000,533.465000,235.289000,533.821000,236.589000,534.531000C237.889000,535.242000,238.914000,536.257000,239.666000,537.577000C240.417000,538.897000,240.793000,540.410000,240.793000,542.116000C240.793000,543.822000,240.407000,545.335000,239.635000,546.655000C238.863000,547.975000,237.807000,549,236.467000,549.731000C235.147000,550.442000,233.685000,550.798000,232.081000,550.798000ZM232.081000,547.782000C232.974000,547.782000,233.807000,547.569000,234.579000,547.142000C235.371000,546.716000,236.010000,546.076000,236.498000,545.223000C236.985000,544.370000,237.229000,543.335000,237.229000,542.116000C237.229000,540.898000,236.995000,539.872000,236.528000,539.040000C236.061000,538.187000,235.442000,537.547000,234.670000,537.121000C233.898000,536.694000,233.066000,536.481000,232.172000,536.481000C231.279000,536.481000,230.446000,536.694000,229.674000,537.121000C228.923000,537.547000,228.324000,538.187000,227.877000,539.040000C227.430000,539.872000,227.207000,540.898000,227.207000,542.116000C227.207000,543.924000,227.664000,545.325000,228.578000,546.320000C229.512000,547.295000,230.680000,547.782000,232.081000,547.782000ZM247.698000,536.207000C248.287000,535.435000,249.089000,534.785000,250.104000,534.257000C251.120000,533.729000,252.267000,533.465000,253.547000,533.465000C255.009000,533.465000,256.339000,533.831000,257.537000,534.562000C258.755000,535.273000,259.710000,536.278000,260.400000,537.577000C261.091000,538.877000,261.436000,540.370000,261.436000,542.055000C261.436000,543.741000,261.091000,545.254000,260.400000,546.594000C259.710000,547.914000,258.755000,548.950000,257.537000,549.701000C256.339000,550.432000,255.009000,550.798000,253.547000,550.798000C252.267000,550.798000,251.130000,550.544000,250.135000,550.036000C249.140000,549.508000,248.328000,548.858000,247.698000,548.087000L247.698000,558.504000L244.225000,558.504000L244.225000,533.739000L247.698000,533.739000L247.698000,536.207000ZM257.902000,542.055000C257.902000,540.898000,257.659000,539.903000,257.171000,539.070000C256.704000,538.217000,256.075000,537.577000,255.283000,537.151000C254.511000,536.704000,253.679000,536.481000,252.785000,536.481000C251.912000,536.481000,251.079000,536.704000,250.287000,537.151000C249.516000,537.598000,248.886000,538.248000,248.399000,539.101000C247.932000,539.953000,247.698000,540.959000,247.698000,542.116000C247.698000,543.274000,247.932000,544.289000,248.399000,545.162000C248.886000,546.015000,249.516000,546.665000,250.287000,547.112000C251.079000,547.559000,251.912000,547.782000,252.785000,547.782000C253.679000,547.782000,254.511000,547.559000,255.283000,547.112000C256.075000,546.645000,256.704000,545.975000,257.171000,545.101000C257.659000,544.228000,257.902000,543.213000,257.902000,542.055000ZM279.538000,542.055000C279.538000,540.370000,279.883000,538.877000,280.574000,537.577000C281.284000,536.278000,282.239000,535.273000,283.437000,534.562000C284.655000,533.831000,285.996000,533.465000,287.458000,533.465000C288.778000,533.465000,289.925000,533.729000,290.900000,534.257000C291.895000,534.765000,292.687000,535.405000,293.276000,536.176000L293.276000,533.739000L296.779000,533.739000L296.779000,550.523000L293.276000,550.523000L293.276000,548.026000C292.687000,548.818000,291.885000,549.478000,290.869000,550.006000C289.854000,550.534000,288.697000,550.798000,287.397000,550.798000C285.955000,550.798000,284.635000,550.432000,283.437000,549.701000C282.239000,548.950000,281.284000,547.914000,280.574000,546.594000C279.883000,545.254000,279.538000,543.741000,279.538000,542.055000ZM293.276000,542.116000C293.276000,540.959000,293.032000,539.953000,292.545000,539.101000C292.078000,538.248000,291.458000,537.598000,290.687000,537.151000C289.915000,536.704000,289.082000,536.481000,288.189000,536.481000C287.295000,536.481000,286.463000,536.704000,285.691000,537.151000C284.919000,537.577000,284.290000,538.217000,283.802000,539.070000C283.335000,539.903000,283.102000,540.898000,283.102000,542.055000C283.102000,543.213000,283.335000,544.228000,283.802000,545.101000C284.290000,545.975000,284.919000,546.645000,285.691000,547.112000C286.483000,547.559000,287.316000,547.782000,288.189000,547.782000C289.082000,547.782000,289.915000,547.559000,290.687000,547.112000C291.458000,546.665000,292.078000,546.015000,292.545000,545.162000C293.032000,544.289000,293.276000,543.274000,293.276000,542.116000ZM313.304000,536.572000L313.304000,545.863000C313.304000,546.492000,313.446000,546.949000,313.731000,547.234000C314.035000,547.498000,314.543000,547.630000,315.254000,547.630000L317.386000,547.630000L317.386000,550.523000L314.644000,550.523000C313.081000,550.523000,311.883000,550.158000,311.050000,549.427000C310.217000,548.696000,309.801000,547.508000,309.801000,545.863000L309.801000,536.572000L307.821000,536.572000L307.821000,533.739000L309.801000,533.739000L309.801000,529.566000L313.304000,529.566000L313.304000,533.739000L317.386000,533.739000L317.386000,536.572000L313.304000,536.572000ZM335.969000,541.720000C335.969000,542.350000,335.929000,542.918000,335.847000,543.426000L323.023000,543.426000C323.125000,544.766000,323.622000,545.843000,324.516000,546.655000C325.409000,547.467000,326.506000,547.873000,327.806000,547.873000C329.674000,547.873000,330.994000,547.091000,331.766000,545.528000L335.512000,545.528000C335.005000,547.071000,334.081000,548.340000,332.740000,549.335000C331.420000,550.310000,329.775000,550.798000,327.806000,550.798000C326.201000,550.798000,324.760000,550.442000,323.480000,549.731000C322.221000,549,321.226000,547.985000,320.495000,546.685000C319.784000,545.365000,319.429000,543.842000,319.429000,542.116000C319.429000,540.390000,319.774000,538.877000,320.465000,537.577000C321.175000,536.257000,322.160000,535.242000,323.419000,534.531000C324.699000,533.821000,326.161000,533.465000,327.806000,533.465000C329.390000,533.465000,330.801000,533.810000,332.040000,534.501000C333.279000,535.191000,334.243000,536.166000,334.934000,537.425000C335.624000,538.664000,335.969000,540.096000,335.969000,541.720000ZM332.344000,540.624000C332.324000,539.344000,331.867000,538.319000,330.974000,537.547000C330.080000,536.775000,328.973000,536.389000,327.653000,536.389000C326.455000,536.389000,325.430000,536.775000,324.577000,537.547000C323.724000,538.298000,323.216000,539.324000,323.054000,540.624000L332.344000,540.624000ZM346.575000,542.025000L351.997000,550.523000L348.068000,550.523000L344.443000,544.827000L341.031000,550.523000L337.407000,550.523000L342.829000,542.268000L337.407000,533.739000L341.336000,533.739000L344.961000,539.436000L348.373000,533.739000L351.997000,533.739000L346.575000,542.025000ZM358.639000,536.572000L358.639000,545.863000C358.639000,546.492000,358.781000,546.949000,359.065000,547.234000C359.370000,547.498000,359.877000,547.630000,360.588000,547.630000L362.720000,547.630000L362.720000,550.523000L359.979000,550.523000C358.415000,550.523000,357.217000,550.158000,356.385000,549.427000C355.552000,548.696000,355.136000,547.508000,355.136000,545.863000L355.136000,536.572000L353.156000,536.572000L353.156000,533.739000L355.136000,533.739000L355.136000,529.566000L358.639000,529.566000L358.639000,533.739000L362.720000,533.739000L362.720000,536.572000L358.639000,536.572000ZM381.114000,550.798000C379.530000,550.798000,378.098000,550.442000,376.819000,549.731000C375.540000,549,374.534000,547.985000,373.803000,546.685000C373.072000,545.365000,372.707000,543.842000,372.707000,542.116000C372.707000,540.410000,373.082000,538.897000,373.834000,537.577000C374.585000,536.257000,375.611000,535.242000,376.910000,534.531000C378.210000,533.821000,379.662000,533.465000,381.266000,533.465000C382.871000,533.465000,384.323000,533.821000,385.622000,534.531000C386.922000,535.242000,387.947000,536.257000,388.699000,537.577000C389.450000,538.897000,389.826000,540.410000,389.826000,542.116000C389.826000,543.822000,389.440000,545.335000,388.668000,546.655000C387.897000,547.975000,386.841000,549,385.500000,549.731000C384.180000,550.442000,382.718000,550.798000,381.114000,550.798000ZM381.114000,547.782000C382.007000,547.782000,382.840000,547.569000,383.612000,547.142000C384.404000,546.716000,385.043000,546.076000,385.531000,545.223000C386.018000,544.370000,386.262000,543.335000,386.262000,542.116000C386.262000,540.898000,386.028000,539.872000,385.561000,539.040000C385.094000,538.187000,384.475000,537.547000,383.703000,537.121000C382.931000,536.694000,382.099000,536.481000,381.205000,536.481000C380.312000,536.481000,379.479000,536.694000,378.708000,537.121000C377.956000,537.547000,377.357000,538.187000,376.910000,539.040000C376.464000,539.872000,376.240000,540.898000,376.240000,542.116000C376.240000,543.924000,376.697000,545.325000,377.611000,546.320000C378.545000,547.295000,379.713000,547.782000,381.114000,547.782000ZM396.731000,536.176000C397.239000,535.323000,397.909000,534.663000,398.742000,534.196000C399.595000,533.709000,400.600000,533.465000,401.757000,533.465000L401.757000,537.060000L400.874000,537.060000C399.513000,537.060000,398.478000,537.405000,397.767000,538.095000C397.076000,538.786000,396.731000,539.984000,396.731000,541.690000L396.731000,550.523000L393.259000,550.523000L393.259000,533.739000L396.731000,533.739000L396.731000,536.176000ZM419.624000,533.465000C420.924000,533.465000,422.071000,533.729000,423.066000,534.257000C424.082000,534.765000,424.874000,535.405000,425.442000,536.176000L425.442000,533.739000L428.945000,533.739000L428.945000,550.798000C428.945000,552.341000,428.621000,553.712000,427.971000,554.910000C427.321000,556.128000,426.377000,557.083000,425.138000,557.773000C423.919000,558.464000,422.457000,558.809000,420.751000,558.809000C418.477000,558.809000,416.588000,558.271000,415.086000,557.194000C413.583000,556.138000,412.730000,554.697000,412.527000,552.869000L415.969000,552.869000C416.233000,553.742000,416.792000,554.443000,417.644000,554.971000C418.518000,555.519000,419.553000,555.793000,420.751000,555.793000C422.153000,555.793000,423.280000,555.367000,424.133000,554.514000C425.006000,553.661000,425.442000,552.422000,425.442000,550.798000L425.442000,547.995000C424.854000,548.787000,424.051000,549.457000,423.036000,550.006000C422.041000,550.534000,420.904000,550.798000,419.624000,550.798000C418.162000,550.798000,416.822000,550.432000,415.604000,549.701000C414.405000,548.950000,413.451000,547.914000,412.740000,546.594000C412.050000,545.254000,411.705000,543.741000,411.705000,542.055000C411.705000,540.370000,412.050000,538.877000,412.740000,537.577000C413.451000,536.278000,414.405000,535.273000,415.604000,534.562000C416.822000,533.831000,418.162000,533.465000,419.624000,533.465000ZM425.442000,542.116000C425.442000,540.959000,425.199000,539.953000,424.711000,539.101000C424.244000,538.248000,423.625000,537.598000,422.853000,537.151000C422.082000,536.704000,421.249000,536.481000,420.355000,536.481000C419.462000,536.481000,418.629000,536.704000,417.858000,537.151000C417.086000,537.577000,416.456000,538.217000,415.969000,539.070000C415.502000,539.903000,415.268000,540.898000,415.268000,542.055000C415.268000,543.213000,415.502000,544.228000,415.969000,545.101000C416.456000,545.975000,417.086000,546.645000,417.858000,547.112000C418.650000,547.559000,419.482000,547.782000,420.355000,547.782000C421.249000,547.782000,422.082000,547.559000,422.853000,547.112000C423.625000,546.665000,424.244000,546.015000,424.711000,545.162000C425.199000,544.289000,425.442000,543.274000,425.442000,542.116000ZM435.273000,531.516000C434.644000,531.516000,434.116000,531.302000,433.689000,530.876000C433.263000,530.450000,433.050000,529.922000,433.050000,529.292000C433.050000,528.663000,433.263000,528.135000,433.689000,527.708000C434.116000,527.282000,434.644000,527.068000,435.273000,527.068000C435.883000,527.068000,436.400000,527.282000,436.827000,527.708000C437.253000,528.135000,437.467000,528.663000,437.467000,529.292000C437.467000,529.922000,437.253000,530.450000,436.827000,530.876000C436.400000,531.302000,435.883000,531.516000,435.273000,531.516000ZM436.979000,533.739000L436.979000,550.523000L433.507000,550.523000L433.507000,533.739000L436.979000,533.739000ZM448.027000,547.416000L452.778000,533.739000L456.464000,533.739000L450.067000,550.523000L445.925000,550.523000L439.558000,533.739000L443.275000,533.739000L448.027000,547.416000ZM474.472000,541.720000C474.472000,542.350000,474.431000,542.918000,474.350000,543.426000L461.526000,543.426000C461.628000,544.766000,462.125000,545.843000,463.019000,546.655000C463.912000,547.467000,465.009000,547.873000,466.308000,547.873000C468.177000,547.873000,469.497000,547.091000,470.268000,545.528000L474.015000,545.528000C473.507000,547.071000,472.583000,548.340000,471.243000,549.335000C469.923000,550.310000,468.278000,550.798000,466.308000,550.798000C464.704000,550.798000,463.262000,550.442000,461.983000,549.731000C460.724000,549,459.729000,547.985000,458.998000,546.685000C458.287000,545.365000,457.932000,543.842000,457.932000,542.116000C457.932000,540.390000,458.277000,538.877000,458.967000,537.577000C459.678000,536.257000,460.663000,535.242000,461.922000,534.531000C463.201000,533.821000,464.663000,533.465000,466.308000,533.465000C467.892000,533.465000,469.304000,533.810000,470.542000,534.501000C471.781000,535.191000,472.746000,536.166000,473.436000,537.425000C474.127000,538.664000,474.472000,540.096000,474.472000,541.720000ZM470.847000,540.624000C470.827000,539.344000,470.370000,538.319000,469.476000,537.547000C468.583000,536.775000,467.476000,536.389000,466.156000,536.389000C464.958000,536.389000,463.932000,536.775000,463.080000,537.547000C462.227000,538.298000,461.719000,539.324000,461.556000,540.624000L470.847000,540.624000ZM501.002000,533.739000L501.002000,550.523000L497.530000,550.523000L497.530000,548.543000C496.981000,549.234000,496.260000,549.782000,495.367000,550.188000C494.494000,550.574000,493.559000,550.767000,492.564000,550.767000C491.244000,550.767000,490.056000,550.493000,489,549.945000C487.965000,549.396000,487.142000,548.584000,486.533000,547.508000C485.944000,546.431000,485.650000,545.132000,485.650000,543.609000L485.650000,533.739000L489.092000,533.739000L489.092000,543.091000C489.092000,544.594000,489.468000,545.751000,490.219000,546.563000C490.970000,547.355000,491.996000,547.751000,493.295000,547.751000C494.595000,547.751000,495.621000,547.355000,496.372000,546.563000C497.144000,545.751000,497.530000,544.594000,497.530000,543.091000L497.530000,533.739000L501.002000,533.739000ZM511.676000,550.798000C510.356000,550.798000,509.168000,550.564000,508.112000,550.097000C507.076000,549.610000,506.254000,548.960000,505.645000,548.147000C505.036000,547.315000,504.711000,546.391000,504.670000,545.376000L508.264000,545.376000C508.325000,546.086000,508.660000,546.685000,509.270000,547.173000C509.899000,547.640000,510.681000,547.873000,511.615000,547.873000C512.590000,547.873000,513.341000,547.691000,513.869000,547.325000C514.418000,546.939000,514.692000,546.452000,514.692000,545.863000C514.692000,545.233000,514.387000,544.766000,513.778000,544.462000C513.189000,544.157000,512.245000,543.822000,510.945000,543.456000C509.686000,543.111000,508.660000,542.776000,507.868000,542.451000C507.076000,542.126000,506.386000,541.629000,505.797000,540.959000C505.229000,540.289000,504.944000,539.405000,504.944000,538.309000C504.944000,537.415000,505.208000,536.603000,505.736000,535.872000C506.264000,535.120000,507.016000,534.531000,507.990000,534.105000C508.985000,533.678000,510.123000,533.465000,511.402000,533.465000C513.311000,533.465000,514.844000,533.953000,516.002000,534.927000C517.179000,535.882000,517.809000,537.192000,517.890000,538.857000L514.418000,538.857000C514.357000,538.105000,514.052000,537.506000,513.504000,537.060000C512.955000,536.613000,512.214000,536.389000,511.280000,536.389000C510.366000,536.389000,509.666000,536.562000,509.178000,536.907000C508.691000,537.253000,508.447000,537.709000,508.447000,538.278000C508.447000,538.725000,508.610000,539.101000,508.935000,539.405000C509.260000,539.710000,509.656000,539.953000,510.123000,540.136000C510.590000,540.299000,511.280000,540.512000,512.194000,540.776000C513.412000,541.101000,514.407000,541.436000,515.179000,541.781000C515.971000,542.106000,516.651000,542.593000,517.220000,543.243000C517.789000,543.893000,518.083000,544.756000,518.103000,545.832000C518.103000,546.787000,517.839000,547.640000,517.311000,548.391000C516.783000,549.143000,516.032000,549.731000,515.057000,550.158000C514.103000,550.584000,512.976000,550.798000,511.676000,550.798000ZM528.611000,542.055000C528.611000,540.370000,528.956000,538.877000,529.647000,537.577000C530.357000,536.278000,531.312000,535.273000,532.510000,534.562000C533.728000,533.831000,535.069000,533.465000,536.531000,533.465000C537.851000,533.465000,538.998000,533.729000,539.973000,534.257000C540.968000,534.765000,541.760000,535.405000,542.349000,536.176000L542.349000,533.739000L545.852000,533.739000L545.852000,550.523000L542.349000,550.523000L542.349000,548.026000C541.760000,548.818000,540.958000,549.478000,539.942000,550.006000C538.927000,550.534000,537.769000,550.798000,536.470000,550.798000C535.028000,550.798000,533.708000,550.432000,532.510000,549.701000C531.312000,548.950000,530.357000,547.914000,529.647000,546.594000C528.956000,545.254000,528.611000,543.741000,528.611000,542.055000ZM542.349000,542.116000C542.349000,540.959000,542.105000,539.953000,541.618000,539.101000C541.151000,538.248000,540.531000,537.598000,539.760000,537.151000C538.988000,536.704000,538.155000,536.481000,537.262000,536.481000C536.368000,536.481000,535.536000,536.704000,534.764000,537.151000C533.992000,537.577000,533.363000,538.217000,532.875000,539.070000C532.408000,539.903000,532.175000,540.898000,532.175000,542.055000C532.175000,543.213000,532.408000,544.228000,532.875000,545.101000C533.363000,545.975000,533.992000,546.645000,534.764000,547.112000C535.556000,547.559000,536.389000,547.782000,537.262000,547.782000C538.155000,547.782000,538.988000,547.559000,539.760000,547.112000C540.531000,546.665000,541.151000,546.015000,541.618000,545.162000C542.105000,544.289000,542.349000,543.274000,542.349000,542.116000ZM118.814000,587.116000C118.814000,585.390000,119.159000,583.877000,119.850000,582.577000C120.561000,581.257000,121.535000,580.242000,122.774000,579.531000C124.013000,578.821000,125.434000,578.465000,127.039000,578.465000C129.069000,578.465000,130.745000,578.953000,132.065000,579.927000C133.405000,580.882000,134.309000,582.253000,134.776000,584.040000L131.029000,584.040000C130.724000,583.207000,130.237000,582.557000,129.567000,582.090000C128.897000,581.623000,128.054000,581.389000,127.039000,581.389000C125.617000,581.389000,124.480000,581.897000,123.627000,582.913000C122.794000,583.908000,122.378000,585.309000,122.378000,587.116000C122.378000,588.924000,122.794000,590.335000,123.627000,591.350000C124.480000,592.366000,125.617000,592.873000,127.039000,592.873000C129.049000,592.873000,130.379000,591.990000,131.029000,590.223000L134.776000,590.223000C134.288000,591.929000,133.374000,593.290000,132.034000,594.305000C130.694000,595.300000,129.029000,595.798000,127.039000,595.798000C125.434000,595.798000,124.013000,595.442000,122.774000,594.731000C121.535000,594,120.561000,592.985000,119.850000,591.685000C119.159000,590.365000,118.814000,588.842000,118.814000,587.116000ZM137.079000,587.055000C137.079000,585.370000,137.424000,583.877000,138.115000,582.577000C138.825000,581.278000,139.780000,580.273000,140.978000,579.562000C142.196000,578.831000,143.537000,578.465000,144.999000,578.465000C146.319000,578.465000,147.466000,578.729000,148.441000,579.257000C149.436000,579.765000,150.228000,580.405000,150.817000,581.176000L150.817000,578.739000L154.320000,578.739000L154.320000,595.523000L150.817000,595.523000L150.817000,593.026000C150.228000,593.818000,149.426000,594.478000,148.410000,595.006000C147.395000,595.534000,146.237000,595.798000,144.938000,595.798000C143.496000,595.798000,142.176000,595.432000,140.978000,594.701000C139.780000,593.950000,138.825000,592.914000,138.115000,591.594000C137.424000,590.254000,137.079000,588.741000,137.079000,587.055000ZM150.817000,587.116000C150.817000,585.959000,150.573000,584.953000,150.086000,584.101000C149.619000,583.248000,148.999000,582.598000,148.228000,582.151000C147.456000,581.704000,146.623000,581.481000,145.730000,581.481000C144.836000,581.481000,144.004000,581.704000,143.232000,582.151000C142.460000,582.577000,141.831000,583.217000,141.343000,584.070000C140.876000,584.903000,140.643000,585.898000,140.643000,587.055000C140.643000,588.213000,140.876000,589.228000,141.343000,590.101000C141.831000,590.975000,142.460000,591.645000,143.232000,592.112000C144.024000,592.559000,144.857000,592.782000,145.730000,592.782000C146.623000,592.782000,147.456000,592.559000,148.228000,592.112000C148.999000,591.665000,149.619000,591.015000,150.086000,590.162000C150.573000,589.289000,150.817000,588.274000,150.817000,587.116000ZM162.353000,572.982000L162.353000,595.523000L158.881000,595.523000L158.881000,572.982000L162.353000,572.982000ZM170.385000,572.982000L170.385000,595.523000L166.913000,595.523000L166.913000,572.982000L170.385000,572.982000ZM176.346000,595.737000C175.716000,595.737000,175.188000,595.523000,174.762000,595.097000C174.335000,594.671000,174.122000,594.143000,174.122000,593.513000C174.122000,592.883000,174.335000,592.355000,174.762000,591.929000C175.188000,591.503000,175.716000,591.289000,176.346000,591.289000C176.955000,591.289000,177.473000,591.503000,177.899000,591.929000C178.326000,592.355000,178.539000,592.883000,178.539000,593.513000C178.539000,594.143000,178.326000,594.671000,177.899000,595.097000C177.473000,595.523000,176.955000,595.737000,176.346000,595.737000ZM199.861000,595.737000C197.891000,595.737000,196.073000,595.280000,194.408000,594.366000C192.763000,593.432000,191.454000,592.142000,190.479000,590.497000C189.524000,588.832000,189.047000,586.964000,189.047000,584.893000C189.047000,582.821000,189.524000,580.963000,190.479000,579.318000C191.454000,577.673000,192.763000,576.394000,194.408000,575.480000C196.073000,574.546000,197.891000,574.079000,199.861000,574.079000C201.851000,574.079000,203.668000,574.546000,205.313000,575.480000C206.979000,576.394000,208.288000,577.673000,209.243000,579.318000C210.197000,580.963000,210.674000,582.821000,210.674000,584.893000C210.674000,586.964000,210.197000,588.832000,209.243000,590.497000C208.288000,592.142000,206.979000,593.432000,205.313000,594.366000C203.668000,595.280000,201.851000,595.737000,199.861000,595.737000ZM199.861000,592.721000C201.262000,592.721000,202.511000,592.406000,203.607000,591.777000C204.704000,591.127000,205.557000,590.213000,206.166000,589.035000C206.796000,587.837000,207.111000,586.456000,207.111000,584.893000C207.111000,583.329000,206.796000,581.958000,206.166000,580.780000C205.557000,579.602000,204.704000,578.699000,203.607000,578.069000C202.511000,577.440000,201.262000,577.125000,199.861000,577.125000C198.460000,577.125000,197.211000,577.440000,196.114000,578.069000C195.017000,578.699000,194.154000,579.602000,193.525000,580.780000C192.916000,581.958000,192.611000,583.329000,192.611000,584.893000C192.611000,586.456000,192.916000,587.837000,193.525000,589.035000C194.154000,590.213000,195.017000,591.127000,196.114000,591.777000C197.211000,592.406000,198.460000,592.721000,199.861000,592.721000ZM229.292000,578.739000L229.292000,595.523000L225.819000,595.523000L225.819000,593.543000C225.271000,594.234000,224.550000,594.782000,223.656000,595.188000C222.783000,595.574000,221.849000,595.767000,220.854000,595.767000C219.534000,595.767000,218.346000,595.493000,217.290000,594.945000C216.254000,594.396000,215.432000,593.584000,214.823000,592.508000C214.234000,591.431000,213.939000,590.132000,213.939000,588.609000L213.939000,578.739000L217.381000,578.739000L217.381000,588.091000C217.381000,589.594000,217.757000,590.751000,218.508000,591.563000C219.260000,592.355000,220.285000,592.751000,221.585000,592.751000C222.885000,592.751000,223.910000,592.355000,224.662000,591.563000C225.433000,590.751000,225.819000,589.594000,225.819000,588.091000L225.819000,578.739000L229.292000,578.739000ZM237.346000,581.176000C237.854000,580.323000,238.524000,579.663000,239.356000,579.196000C240.209000,578.709000,241.215000,578.465000,242.372000,578.465000L242.372000,582.060000L241.489000,582.060000C240.128000,582.060000,239.092000,582.405000,238.382000,583.095000C237.691000,583.786000,237.346000,584.984000,237.346000,586.690000L237.346000,595.523000L233.873000,595.523000L233.873000,578.739000L237.346000,578.739000L237.346000,581.176000ZM259.569000,595.798000C258.249000,595.798000,257.061000,595.564000,256.005000,595.097000C254.969000,594.610000,254.147000,593.960000,253.538000,593.147000C252.929000,592.315000,252.604000,591.391000,252.563000,590.376000L256.157000,590.376000C256.218000,591.086000,256.553000,591.685000,257.163000,592.173000C257.792000,592.640000,258.574000,592.873000,259.508000,592.873000C260.483000,592.873000,261.234000,592.691000,261.762000,592.325000C262.311000,591.939000,262.585000,591.452000,262.585000,590.863000C262.585000,590.233000,262.280000,589.766000,261.671000,589.462000C261.082000,589.157000,260.138000,588.822000,258.838000,588.456000C257.579000,588.111000,256.553000,587.776000,255.761000,587.451000C254.969000,587.126000,254.279000,586.629000,253.690000,585.959000C253.121000,585.289000,252.837000,584.405000,252.837000,583.309000C252.837000,582.415000,253.101000,581.603000,253.629000,580.872000C254.157000,580.120000,254.908000,579.531000,255.883000,579.105000C256.878000,578.678000,258.016000,578.465000,259.295000,578.465000C261.204000,578.465000,262.737000,578.953000,263.895000,579.927000C265.072000,580.882000,265.702000,582.192000,265.783000,583.857000L262.311000,583.857000C262.250000,583.105000,261.945000,582.506000,261.397000,582.060000C260.848000,581.613000,260.107000,581.389000,259.173000,581.389000C258.259000,581.389000,257.559000,581.562000,257.071000,581.907000C256.584000,582.253000,256.340000,582.709000,256.340000,583.278000C256.340000,583.725000,256.503000,584.101000,256.828000,584.405000C257.152000,584.710000,257.548000,584.953000,258.016000,585.136000C258.483000,585.299000,259.173000,585.512000,260.087000,585.776000C261.305000,586.101000,262.300000,586.436000,263.072000,586.781000C263.864000,587.106000,264.544000,587.593000,265.113000,588.243000C265.682000,588.893000,265.976000,589.756000,265.996000,590.832000C265.996000,591.787000,265.732000,592.640000,265.204000,593.391000C264.676000,594.143000,263.925000,594.731000,262.950000,595.158000C261.996000,595.584000,260.869000,595.798000,259.569000,595.798000ZM284.949000,578.739000L284.949000,595.523000L281.476000,595.523000L281.476000,593.543000C280.928000,594.234000,280.207000,594.782000,279.313000,595.188000C278.440000,595.574000,277.506000,595.767000,276.511000,595.767000C275.191000,595.767000,274.003000,595.493000,272.947000,594.945000C271.911000,594.396000,271.089000,593.584000,270.480000,592.508000C269.891000,591.431000,269.596000,590.132000,269.596000,588.609000L269.596000,578.739000L273.038000,578.739000L273.038000,588.091000C273.038000,589.594000,273.414000,590.751000,274.165000,591.563000C274.917000,592.355000,275.942000,592.751000,277.242000,592.751000C278.542000,592.751000,279.567000,592.355000,280.318000,591.563000C281.090000,590.751000,281.476000,589.594000,281.476000,588.091000L281.476000,578.739000L284.949000,578.739000ZM293.003000,581.207000C293.592000,580.435000,294.394000,579.785000,295.409000,579.257000C296.425000,578.729000,297.572000,578.465000,298.851000,578.465000C300.314000,578.465000,301.644000,578.831000,302.842000,579.562000C304.060000,580.273000,305.015000,581.278000,305.705000,582.577000C306.396000,583.877000,306.741000,585.370000,306.741000,587.055000C306.741000,588.741000,306.396000,590.254000,305.705000,591.594000C305.015000,592.914000,304.060000,593.950000,302.842000,594.701000C301.644000,595.432000,300.314000,595.798000,298.851000,595.798000C297.572000,595.798000,296.435000,595.544000,295.440000,595.036000C294.445000,594.508000,293.632000,593.858000,293.003000,593.087000L293.003000,603.504000L289.530000,603.504000L289.530000,578.739000L293.003000,578.739000L293.003000,581.207000ZM303.207000,587.055000C303.207000,585.898000,302.964000,584.903000,302.476000,584.070000C302.009000,583.217000,301.380000,582.577000,300.588000,582.151000C299.816000,581.704000,298.983000,581.481000,298.090000,581.481000C297.217000,581.481000,296.384000,581.704000,295.592000,582.151000C294.820000,582.598000,294.191000,583.248000,293.704000,584.101000C293.236000,584.953000,293.003000,585.959000,293.003000,587.116000C293.003000,588.274000,293.236000,589.289000,293.704000,590.162000C294.191000,591.015000,294.820000,591.665000,295.592000,592.112000C296.384000,592.559000,297.217000,592.782000,298.090000,592.782000C298.983000,592.782000,299.816000,592.559000,300.588000,592.112000C301.380000,591.645000,302.009000,590.975000,302.476000,590.101000C302.964000,589.228000,303.207000,588.213000,303.207000,587.055000ZM313.647000,581.207000C314.236000,580.435000,315.038000,579.785000,316.054000,579.257000C317.069000,578.729000,318.217000,578.465000,319.496000,578.465000C320.958000,578.465000,322.288000,578.831000,323.486000,579.562000C324.705000,580.273000,325.659000,581.278000,326.350000,582.577000C327.040000,583.877000,327.385000,585.370000,327.385000,587.055000C327.385000,588.741000,327.040000,590.254000,326.350000,591.594000C325.659000,592.914000,324.705000,593.950000,323.486000,594.701000C322.288000,595.432000,320.958000,595.798000,319.496000,595.798000C318.217000,595.798000,317.079000,595.544000,316.084000,595.036000C315.089000,594.508000,314.277000,593.858000,313.647000,593.087000L313.647000,603.504000L310.175000,603.504000L310.175000,578.739000L313.647000,578.739000L313.647000,581.207000ZM323.852000,587.055000C323.852000,585.898000,323.608000,584.903000,323.121000,584.070000C322.654000,583.217000,322.024000,582.577000,321.232000,582.151000C320.461000,581.704000,319.628000,581.481000,318.734000,581.481000C317.861000,581.481000,317.029000,581.704000,316.237000,582.151000C315.465000,582.598000,314.835000,583.248000,314.348000,584.101000C313.881000,584.953000,313.647000,585.959000,313.647000,587.116000C313.647000,588.274000,313.881000,589.289000,314.348000,590.162000C314.835000,591.015000,315.465000,591.665000,316.237000,592.112000C317.029000,592.559000,317.861000,592.782000,318.734000,592.782000C319.628000,592.782000,320.461000,592.559000,321.232000,592.112000C322.024000,591.645000,322.654000,590.975000,323.121000,590.101000C323.608000,589.228000,323.852000,588.213000,323.852000,587.055000ZM338.100000,595.798000C336.516000,595.798000,335.084000,595.442000,333.805000,594.731000C332.525000,594,331.520000,592.985000,330.789000,591.685000C330.058000,590.365000,329.692000,588.842000,329.692000,587.116000C329.692000,585.410000,330.068000,583.897000,330.819000,582.577000C331.571000,581.257000,332.596000,580.242000,333.896000,579.531000C335.196000,578.821000,336.648000,578.465000,338.252000,578.465000C339.856000,578.465000,341.308000,578.821000,342.608000,579.531000C343.908000,580.242000,344.933000,581.257000,345.684000,582.577000C346.436000,583.897000,346.811000,585.410000,346.811000,587.116000C346.811000,588.822000,346.426000,590.335000,345.654000,591.655000C344.882000,592.975000,343.826000,594,342.486000,594.731000C341.166000,595.442000,339.704000,595.798000,338.100000,595.798000ZM338.100000,592.782000C338.993000,592.782000,339.826000,592.569000,340.597000,592.142000C341.389000,591.716000,342.029000,591.076000,342.516000,590.223000C343.004000,589.370000,343.248000,588.335000,343.248000,587.116000C343.248000,585.898000,343.014000,584.872000,342.547000,584.040000C342.080000,583.187000,341.460000,582.547000,340.689000,582.121000C339.917000,581.694000,339.085000,581.481000,338.191000,581.481000C337.297000,581.481000,336.465000,581.694000,335.693000,582.121000C334.942000,582.547000,334.343000,583.187000,333.896000,584.040000C333.449000,584.872000,333.226000,585.898000,333.226000,587.116000C333.226000,588.924000,333.683000,590.325000,334.597000,591.320000C335.531000,592.295000,336.698000,592.782000,338.100000,592.782000ZM353.717000,581.176000C354.225000,580.323000,354.895000,579.663000,355.727000,579.196000C356.580000,578.709000,357.585000,578.465000,358.743000,578.465000L358.743000,582.060000L357.860000,582.060000C356.499000,582.060000,355.463000,582.405000,354.753000,583.095000C354.062000,583.786000,353.717000,584.984000,353.717000,586.690000L353.717000,595.523000L350.244000,595.523000L350.244000,578.739000L353.717000,578.739000L353.717000,581.176000ZM365.986000,581.572000L365.986000,590.863000C365.986000,591.492000,366.128000,591.949000,366.413000,592.234000C366.717000,592.498000,367.225000,592.630000,367.936000,592.630000L370.068000,592.630000L370.068000,595.523000L367.327000,595.523000C365.763000,595.523000,364.565000,595.158000,363.732000,594.427000C362.900000,593.696000,362.483000,592.508000,362.483000,590.863000L362.483000,581.572000L360.503000,581.572000L360.503000,578.739000L362.483000,578.739000L362.483000,574.566000L365.986000,574.566000L365.986000,578.739000L370.068000,578.739000L370.068000,581.572000L365.986000,581.572000ZM385.233000,581.572000L385.233000,590.863000C385.233000,591.492000,385.375000,591.949000,385.659000,592.234000C385.964000,592.498000,386.471000,592.630000,387.182000,592.630000L389.314000,592.630000L389.314000,595.523000L386.573000,595.523000C385.009000,595.523000,383.811000,595.158000,382.979000,594.427000C382.146000,593.696000,381.730000,592.508000,381.730000,590.863000L381.730000,581.572000L379.750000,581.572000L379.750000,578.739000L381.730000,578.739000L381.730000,574.566000L385.233000,574.566000L385.233000,578.739000L389.314000,578.739000L389.314000,581.572000L385.233000,581.572000ZM407.898000,586.720000C407.898000,587.350000,407.857000,587.918000,407.776000,588.426000L394.952000,588.426000C395.053000,589.766000,395.551000,590.843000,396.444000,591.655000C397.338000,592.467000,398.435000,592.873000,399.734000,592.873000C401.603000,592.873000,402.923000,592.091000,403.694000,590.528000L407.441000,590.528000C406.933000,592.071000,406.009000,593.340000,404.669000,594.335000C403.349000,595.310000,401.704000,595.798000,399.734000,595.798000C398.130000,595.798000,396.688000,595.442000,395.409000,594.731000C394.150000,594,393.155000,592.985000,392.424000,591.685000C391.713000,590.365000,391.357000,588.842000,391.357000,587.116000C391.357000,585.390000,391.703000,583.877000,392.393000,582.577000C393.104000,581.257000,394.089000,580.242000,395.348000,579.531000C396.627000,578.821000,398.089000,578.465000,399.734000,578.465000C401.318000,578.465000,402.730000,578.810000,403.968000,579.501000C405.207000,580.191000,406.172000,581.166000,406.862000,582.425000C407.553000,583.664000,407.898000,585.096000,407.898000,586.720000ZM404.273000,585.624000C404.253000,584.344000,403.796000,583.319000,402.902000,582.547000C402.009000,581.775000,400.902000,581.389000,399.582000,581.389000C398.384000,581.389000,397.358000,581.775000,396.505000,582.547000C395.652000,583.298000,395.145000,584.324000,394.982000,585.624000L404.273000,585.624000ZM410.158000,587.055000C410.158000,585.370000,410.503000,583.877000,411.193000,582.577000C411.904000,581.278000,412.859000,580.273000,414.057000,579.562000C415.275000,578.831000,416.615000,578.465000,418.078000,578.465000C419.398000,578.465000,420.545000,578.729000,421.520000,579.257000C422.515000,579.765000,423.307000,580.405000,423.896000,581.176000L423.896000,578.739000L427.399000,578.739000L427.399000,595.523000L423.896000,595.523000L423.896000,593.026000C423.307000,593.818000,422.505000,594.478000,421.489000,595.006000C420.474000,595.534000,419.316000,595.798000,418.017000,595.798000C416.575000,595.798000,415.255000,595.432000,414.057000,594.701000C412.859000,593.950000,411.904000,592.914000,411.193000,591.594000C410.503000,590.254000,410.158000,588.741000,410.158000,587.055000ZM423.896000,587.116000C423.896000,585.959000,423.652000,584.953000,423.165000,584.101000C422.697000,583.248000,422.078000,582.598000,421.306000,582.151000C420.535000,581.704000,419.702000,581.481000,418.809000,581.481000C417.915000,581.481000,417.082000,581.704000,416.311000,582.151000C415.539000,582.577000,414.910000,583.217000,414.422000,584.070000C413.955000,584.903000,413.722000,585.898000,413.722000,587.055000C413.722000,588.213000,413.955000,589.228000,414.422000,590.101000C414.910000,590.975000,415.539000,591.645000,416.311000,592.112000C417.103000,592.559000,417.935000,592.782000,418.809000,592.782000C419.702000,592.782000,420.535000,592.559000,421.306000,592.112000C422.078000,591.665000,422.697000,591.015000,423.165000,590.162000C423.652000,589.289000,423.896000,588.274000,423.896000,587.116000ZM452.277000,578.465000C453.597000,578.465000,454.775000,578.739000,455.811000,579.288000C456.867000,579.836000,457.689000,580.648000,458.278000,581.725000C458.887000,582.801000,459.192000,584.101000,459.192000,585.624000L459.192000,595.523000L455.750000,595.523000L455.750000,586.141000C455.750000,584.639000,455.374000,583.491000,454.623000,582.699000C453.871000,581.887000,452.846000,581.481000,451.546000,581.481000C450.247000,581.481000,449.211000,581.887000,448.439000,582.699000C447.688000,583.491000,447.312000,584.639000,447.312000,586.141000L447.312000,595.523000L443.870000,595.523000L443.870000,586.141000C443.870000,584.639000,443.494000,583.491000,442.743000,582.699000C441.992000,581.887000,440.966000,581.481000,439.666000,581.481000C438.367000,581.481000,437.331000,581.887000,436.559000,582.699000C435.808000,583.491000,435.432000,584.639000,435.432000,586.141000L435.432000,595.523000L431.960000,595.523000L431.960000,578.739000L435.432000,578.739000L435.432000,580.658000C436.001000,579.968000,436.722000,579.430000,437.595000,579.044000C438.468000,578.658000,439.402000,578.465000,440.397000,578.465000C441.738000,578.465000,442.936000,578.750000,443.992000,579.318000C445.048000,579.887000,445.860000,580.709000,446.429000,581.785000C446.936000,580.770000,447.728000,579.968000,448.805000,579.379000C449.881000,578.770000,451.039000,578.465000,452.277000,578.465000ZM473.290000,576.516000C472.661000,576.516000,472.133000,576.302000,471.706000,575.876000C471.280000,575.450000,471.066000,574.922000,471.066000,574.292000C471.066000,573.663000,471.280000,573.135000,471.706000,572.708000C472.133000,572.282000,472.661000,572.068000,473.290000,572.068000C473.899000,572.068000,474.417000,572.282000,474.844000,572.708000C475.270000,573.135000,475.483000,573.663000,475.483000,574.292000C475.483000,574.922000,475.270000,575.450000,474.844000,575.876000C474.417000,576.302000,473.899000,576.516000,473.290000,576.516000ZM474.996000,578.739000L474.996000,595.523000L471.523000,595.523000L471.523000,578.739000L474.996000,578.739000ZM485.647000,595.798000C484.327000,595.798000,483.139000,595.564000,482.083000,595.097000C481.048000,594.610000,480.225000,593.960000,479.616000,593.147000C479.007000,592.315000,478.682000,591.391000,478.641000,590.376000L482.236000,590.376000C482.297000,591.086000,482.632000,591.685000,483.241000,592.173000C483.870000,592.640000,484.652000,592.873000,485.586000,592.873000C486.561000,592.873000,487.313000,592.691000,487.841000,592.325000C488.389000,591.939000,488.663000,591.452000,488.663000,590.863000C488.663000,590.233000,488.358000,589.766000,487.749000,589.462000C487.160000,589.157000,486.216000,588.822000,484.916000,588.456000C483.657000,588.111000,482.632000,587.776000,481.840000,587.451000C481.048000,587.126000,480.357000,586.629000,479.768000,585.959000C479.200000,585.289000,478.915000,584.405000,478.915000,583.309000C478.915000,582.415000,479.179000,581.603000,479.707000,580.872000C480.235000,580.120000,480.987000,579.531000,481.962000,579.105000C482.957000,578.678000,484.094000,578.465000,485.373000,578.465000C487.282000,578.465000,488.815000,578.953000,489.973000,579.927000C491.151000,580.882000,491.780000,582.192000,491.861000,583.857000L488.389000,583.857000C488.328000,583.105000,488.023000,582.506000,487.475000,582.060000C486.927000,581.613000,486.186000,581.389000,485.251000,581.389000C484.338000,581.389000,483.637000,581.562000,483.150000,581.907000C482.662000,582.253000,482.418000,582.709000,482.418000,583.278000C482.418000,583.725000,482.581000,584.101000,482.906000,584.405000C483.231000,584.710000,483.627000,584.953000,484.094000,585.136000C484.561000,585.299000,485.251000,585.512000,486.165000,585.776000C487.384000,586.101000,488.379000,586.436000,489.150000,586.781000C489.942000,587.106000,490.623000,587.593000,491.191000,588.243000C491.760000,588.893000,492.054000,589.756000,492.075000,590.832000C492.075000,591.787000,491.811000,592.640000,491.283000,593.391000C490.755000,594.143000,490.003000,594.731000,489.029000,595.158000C488.074000,595.584000,486.947000,595.798000,485.647000,595.798000ZM118.814000,632.055000C118.814000,630.370000,119.159000,628.877000,119.850000,627.577000C120.561000,626.278000,121.515000,625.273000,122.713000,624.562000C123.932000,623.831000,125.272000,623.465000,126.734000,623.465000C128.054000,623.465000,129.201000,623.729000,130.176000,624.257000C131.171000,624.765000,131.963000,625.405000,132.552000,626.176000L132.552000,623.739000L136.055000,623.739000L136.055000,640.523000L132.552000,640.523000L132.552000,638.026000C131.963000,638.818000,131.161000,639.478000,130.146000,640.006000C129.130000,640.534000,127.973000,640.798000,126.673000,640.798000C125.231000,640.798000,123.911000,640.432000,122.713000,639.701000C121.515000,638.950000,120.561000,637.914000,119.850000,636.594000C119.159000,635.254000,118.814000,633.741000,118.814000,632.055000ZM132.552000,632.116000C132.552000,630.959000,132.308000,629.953000,131.821000,629.101000C131.354000,628.248000,130.735000,627.598000,129.963000,627.151000C129.191000,626.704000,128.359000,626.481000,127.465000,626.481000C126.571000,626.481000,125.739000,626.704000,124.967000,627.151000C124.196000,627.577000,123.566000,628.217000,123.079000,629.070000C122.612000,629.903000,122.378000,630.898000,122.378000,632.055000C122.378000,633.213000,122.612000,634.228000,123.079000,635.101000C123.566000,635.975000,124.196000,636.645000,124.967000,637.112000C125.759000,637.559000,126.592000,637.782000,127.465000,637.782000C128.359000,637.782000,129.191000,637.559000,129.963000,637.112000C130.735000,636.665000,131.354000,636.015000,131.821000,635.162000C132.308000,634.289000,132.552000,633.274000,132.552000,632.116000ZM139.459000,632.116000C139.459000,630.390000,139.804000,628.877000,140.494000,627.577000C141.205000,626.257000,142.180000,625.242000,143.419000,624.531000C144.657000,623.821000,146.079000,623.465000,147.683000,623.465000C149.714000,623.465000,151.389000,623.953000,152.709000,624.927000C154.049000,625.882000,154.953000,627.253000,155.420000,629.040000L151.673000,629.040000C151.369000,628.207000,150.882000,627.557000,150.211000,627.090000C149.541000,626.623000,148.698000,626.389000,147.683000,626.389000C146.262000,626.389000,145.124000,626.897000,144.271000,627.913000C143.439000,628.908000,143.023000,630.309000,143.023000,632.116000C143.023000,633.924000,143.439000,635.335000,144.271000,636.350000C145.124000,637.366000,146.262000,637.873000,147.683000,637.873000C149.694000,637.873000,151.024000,636.990000,151.673000,635.223000L155.420000,635.223000C154.933000,636.929000,154.019000,638.290000,152.679000,639.305000C151.338000,640.300000,149.673000,640.798000,147.683000,640.798000C146.079000,640.798000,144.657000,640.442000,143.419000,639.731000C142.180000,639,141.205000,637.985000,140.494000,636.685000C139.804000,635.365000,139.459000,633.842000,139.459000,632.116000ZM160.648000,621.516000C160.018000,621.516000,159.490000,621.302000,159.064000,620.876000C158.637000,620.450000,158.424000,619.922000,158.424000,619.292000C158.424000,618.663000,158.637000,618.135000,159.064000,617.708000C159.490000,617.282000,160.018000,617.068000,160.648000,617.068000C161.257000,617.068000,161.775000,617.282000,162.201000,617.708000C162.628000,618.135000,162.841000,618.663000,162.841000,619.292000C162.841000,619.922000,162.628000,620.450000,162.201000,620.876000C161.775000,621.302000,161.257000,621.516000,160.648000,621.516000ZM162.353000,623.739000L162.353000,640.523000L158.881000,640.523000L158.881000,623.739000L162.353000,623.739000ZM173.401000,637.416000L178.153000,623.739000L181.839000,623.739000L175.442000,640.523000L171.299000,640.523000L164.933000,623.739000L168.649000,623.739000L173.401000,637.416000ZM199.846000,631.720000C199.846000,632.350000,199.806000,632.918000,199.724000,633.426000L186.900000,633.426000C187.002000,634.766000,187.499000,635.843000,188.393000,636.655000C189.286000,637.467000,190.383000,637.873000,191.683000,637.873000C193.551000,637.873000,194.871000,637.091000,195.643000,635.528000L199.389000,635.528000C198.882000,637.071000,197.958000,638.340000,196.617000,639.335000C195.297000,640.310000,193.653000,640.798000,191.683000,640.798000C190.078000,640.798000,188.637000,640.442000,187.357000,639.731000C186.098000,639,185.103000,637.985000,184.372000,636.685000C183.661000,635.365000,183.306000,633.842000,183.306000,632.116000C183.306000,630.390000,183.651000,628.877000,184.342000,627.577000C185.052000,626.257000,186.037000,625.242000,187.296000,624.531000C188.576000,623.821000,190.038000,623.465000,191.683000,623.465000C193.267000,623.465000,194.678000,623.810000,195.917000,624.501000C197.156000,625.191000,198.120000,626.166000,198.811000,627.425000C199.501000,628.664000,199.846000,630.096000,199.846000,631.720000ZM196.221000,630.624000C196.201000,629.344000,195.744000,628.319000,194.851000,627.547000C193.957000,626.775000,192.850000,626.389000,191.530000,626.389000C190.332000,626.389000,189.307000,626.775000,188.454000,627.547000C187.601000,628.298000,187.093000,629.324000,186.931000,630.624000L196.221000,630.624000ZM212.638000,635.802000C214.588000,634.116000,216.121000,632.736000,217.238000,631.659000C218.375000,630.563000,219.320000,629.425000,220.071000,628.248000C220.822000,627.070000,221.198000,625.892000,221.198000,624.714000C221.198000,623.496000,220.904000,622.541000,220.315000,621.851000C219.746000,621.160000,218.842000,620.815000,217.604000,620.815000C216.406000,620.815000,215.471000,621.201000,214.801000,621.973000C214.151000,622.724000,213.806000,623.739000,213.766000,625.019000L210.415000,625.019000C210.476000,622.704000,211.166000,620.937000,212.486000,619.719000C213.826000,618.480000,215.522000,617.860000,217.573000,617.860000C219.787000,617.860000,221.513000,618.470000,222.752000,619.688000C224.011000,620.906000,224.640000,622.531000,224.640000,624.562000C224.640000,626.024000,224.264000,627.435000,223.513000,628.796000C222.782000,630.136000,221.899000,631.344000,220.863000,632.421000C219.848000,633.477000,218.548000,634.705000,216.964000,636.107000L215.593000,637.325000L225.249000,637.325000L225.249000,640.219000L210.445000,640.219000L210.445000,637.691000L212.638000,635.802000ZM227.874000,635.893000L227.874000,633.274000L238.108000,618.591000L242.312000,618.591000L242.312000,632.878000L245.145000,632.878000L245.145000,635.893000L242.312000,635.893000L242.312000,640.523000L238.900000,640.523000L238.900000,635.893000L227.874000,635.893000ZM239.053000,622.125000L231.864000,632.878000L239.053000,632.878000L239.053000,622.125000ZM263.581000,632.025000L269.003000,640.523000L265.073000,640.523000L261.449000,634.827000L258.037000,640.523000L254.412000,640.523000L259.834000,632.268000L254.412000,623.739000L258.342000,623.739000L261.966000,629.436000L265.378000,623.739000L269.003000,623.739000L263.581000,632.025000ZM293.122000,620.998000L284.653000,640.523000L281.150000,640.523000L289.710000,621.363000L278.439000,621.363000L278.439000,618.409000L293.122000,618.409000L293.122000,620.998000ZM126.886000,708.353000C129.140000,708.353000,131.110000,708.790000,132.796000,709.663000C134.502000,710.516000,135.811000,711.754000,136.725000,713.379000C137.659000,714.983000,138.126000,716.862000,138.126000,719.014000C138.126000,721.167000,137.659000,723.035000,136.725000,724.619000C135.811000,726.203000,134.502000,727.422000,132.796000,728.275000C131.110000,729.107000,129.140000,729.523000,126.886000,729.523000L119.972000,729.523000L119.972000,708.353000L126.886000,708.353000ZM126.886000,726.691000C129.364000,726.691000,131.263000,726.020000,132.582000,724.680000C133.902000,723.340000,134.562000,721.451000,134.562000,719.014000C134.562000,716.557000,133.902000,714.638000,132.582000,713.257000C131.263000,711.876000,129.364000,711.186000,126.886000,711.186000L123.444000,711.186000L123.444000,726.691000L126.886000,726.691000ZM148.848000,729.798000C147.264000,729.798000,145.833000,729.442000,144.553000,728.731000C143.274000,728,142.269000,726.985000,141.538000,725.685000C140.806000,724.365000,140.441000,722.842000,140.441000,721.116000C140.441000,719.410000,140.817000,717.897000,141.568000,716.577000C142.319000,715.257000,143.345000,714.242000,144.645000,713.531000C145.944000,712.821000,147.396000,712.465000,149.001000,712.465000C150.605000,712.465000,152.057000,712.821000,153.356000,713.531000C154.656000,714.242000,155.682000,715.257000,156.433000,716.577000C157.184000,717.897000,157.560000,719.410000,157.560000,721.116000C157.560000,722.822000,157.174000,724.335000,156.403000,725.655000C155.631000,726.975000,154.575000,728,153.235000,728.731000C151.915000,729.442000,150.453000,729.798000,148.848000,729.798000ZM148.848000,726.782000C149.742000,726.782000,150.574000,726.569000,151.346000,726.142000C152.138000,725.716000,152.778000,725.076000,153.265000,724.223000C153.752000,723.370000,153.996000,722.335000,153.996000,721.116000C153.996000,719.898000,153.763000,718.872000,153.296000,718.040000C152.828000,717.187000,152.209000,716.547000,151.437000,716.121000C150.666000,715.694000,149.833000,715.481000,148.940000,715.481000C148.046000,715.481000,147.213000,715.694000,146.442000,716.121000C145.690000,716.547000,145.091000,717.187000,144.645000,718.040000C144.198000,718.872000,143.974000,719.898000,143.974000,721.116000C143.974000,722.924000,144.431000,724.325000,145.345000,725.320000C146.279000,726.295000,147.447000,726.782000,148.848000,726.782000ZM177.374000,712.465000C178.694000,712.465000,179.872000,712.739000,180.907000,713.288000C181.963000,713.836000,182.786000,714.648000,183.375000,715.725000C183.964000,716.801000,184.258000,718.101000,184.258000,719.624000L184.258000,729.523000L180.816000,729.523000L180.816000,720.141000C180.816000,718.639000,180.440000,717.491000,179.689000,716.699000C178.938000,715.887000,177.912000,715.481000,176.612000,715.481000C175.313000,715.481000,174.277000,715.887000,173.505000,716.699000C172.754000,717.491000,172.378000,718.639000,172.378000,720.141000L172.378000,729.523000L168.906000,729.523000L168.906000,712.739000L172.378000,712.739000L172.378000,714.658000C172.947000,713.968000,173.668000,713.430000,174.541000,713.044000C175.434000,712.658000,176.379000,712.465000,177.374000,712.465000ZM195.968000,729.798000C194.384000,729.798000,192.952000,729.442000,191.673000,728.731000C190.393000,728,189.388000,726.985000,188.657000,725.685000C187.926000,724.365000,187.560000,722.842000,187.560000,721.116000C187.560000,719.410000,187.936000,717.897000,188.688000,716.577000C189.439000,715.257000,190.464000,714.242000,191.764000,713.531000C193.064000,712.821000,194.516000,712.465000,196.120000,712.465000C197.724000,712.465000,199.176000,712.821000,200.476000,713.531000C201.776000,714.242000,202.801000,715.257000,203.553000,716.577000C204.304000,717.897000,204.680000,719.410000,204.680000,721.116000C204.680000,722.822000,204.294000,724.335000,203.522000,725.655000C202.750000,726.975000,201.694000,728,200.354000,728.731000C199.034000,729.442000,197.572000,729.798000,195.968000,729.798000ZM195.968000,726.782000C196.861000,726.782000,197.694000,726.569000,198.466000,726.142000C199.258000,725.716000,199.897000,725.076000,200.385000,724.223000C200.872000,723.370000,201.116000,722.335000,201.116000,721.116000C201.116000,719.898000,200.882000,718.872000,200.415000,718.040000C199.948000,717.187000,199.329000,716.547000,198.557000,716.121000C197.785000,715.694000,196.953000,715.481000,196.059000,715.481000C195.166000,715.481000,194.333000,715.694000,193.561000,716.121000C192.810000,716.547000,192.211000,717.187000,191.764000,718.040000C191.317000,718.872000,191.094000,719.898000,191.094000,721.116000C191.094000,722.924000,191.551000,724.325000,192.465000,725.320000C193.399000,726.295000,194.567000,726.782000,195.968000,726.782000ZM212.164000,715.572000L212.164000,724.863000C212.164000,725.492000,212.306000,725.949000,212.590000,726.234000C212.895000,726.498000,213.402000,726.630000,214.113000,726.630000L216.246000,726.630000L216.246000,729.523000L213.504000,729.523000C211.940000,729.523000,210.742000,729.158000,209.910000,728.427000C209.077000,727.696000,208.661000,726.508000,208.661000,724.863000L208.661000,715.572000L206.681000,715.572000L206.681000,712.739000L208.661000,712.739000L208.661000,708.566000L212.164000,708.566000L212.164000,712.739000L216.246000,712.739000L216.246000,715.572000L212.164000,715.572000ZM249.900000,712.739000L244.691000,729.523000L241.036000,729.523000L237.655000,717.126000L234.273000,729.523000L230.618000,729.523000L225.379000,712.739000L228.912000,712.739000L232.415000,726.234000L235.979000,712.739000L239.604000,712.739000L243.016000,726.173000L246.488000,712.739000L249.900000,712.739000ZM259.775000,729.798000C258.191000,729.798000,256.760000,729.442000,255.480000,728.731000C254.201000,728,253.196000,726.985000,252.465000,725.685000C251.734000,724.365000,251.368000,722.842000,251.368000,721.116000C251.368000,719.410000,251.744000,717.897000,252.495000,716.577000C253.247000,715.257000,254.272000,714.242000,255.572000,713.531000C256.871000,712.821000,258.323000,712.465000,259.928000,712.465000C261.532000,712.465000,262.984000,712.821000,264.284000,713.531000C265.583000,714.242000,266.609000,715.257000,267.360000,716.577000C268.112000,717.897000,268.487000,719.410000,268.487000,721.116000C268.487000,722.822000,268.101000,724.335000,267.330000,725.655000C266.558000,726.975000,265.502000,728,264.162000,728.731000C262.842000,729.442000,261.380000,729.798000,259.775000,729.798000ZM259.775000,726.782000C260.669000,726.782000,261.501000,726.569000,262.273000,726.142000C263.065000,725.716000,263.705000,725.076000,264.192000,724.223000C264.680000,723.370000,264.923000,722.335000,264.923000,721.116000C264.923000,719.898000,264.690000,718.872000,264.223000,718.040000C263.756000,717.187000,263.136000,716.547000,262.365000,716.121000C261.593000,715.694000,260.760000,715.481000,259.867000,715.481000C258.973000,715.481000,258.141000,715.694000,257.369000,716.121000C256.618000,716.547000,256.018000,717.187000,255.572000,718.040000C255.125000,718.872000,254.902000,719.898000,254.902000,721.116000C254.902000,722.924000,255.358000,724.325000,256.272000,725.320000C257.206000,726.295000,258.374000,726.782000,259.775000,726.782000ZM275.393000,715.176000C275.900000,714.323000,276.570000,713.663000,277.403000,713.196000C278.256000,712.709000,279.261000,712.465000,280.419000,712.465000L280.419000,716.060000L279.535000,716.060000C278.175000,716.060000,277.139000,716.405000,276.428000,717.095000C275.738000,717.786000,275.393000,718.984000,275.393000,720.690000L275.393000,729.523000L271.920000,729.523000L271.920000,712.739000L275.393000,712.739000L275.393000,715.176000ZM287.083000,715.176000C287.591000,714.323000,288.261000,713.663000,289.094000,713.196000C289.947000,712.709000,290.952000,712.465000,292.109000,712.465000L292.109000,716.060000L291.226000,716.060000C289.865000,716.060000,288.830000,716.405000,288.119000,717.095000C287.428000,717.786000,287.083000,718.984000,287.083000,720.690000L287.083000,729.523000L283.611000,729.523000L283.611000,712.739000L287.083000,712.739000L287.083000,715.176000ZM310.410000,712.739000L300.114000,737.413000L296.520000,737.413000L299.931000,729.249000L293.321000,712.739000L297.190000,712.739000L301.911000,725.533000L306.816000,712.739000L310.410000,712.739000ZM314.432000,729.737000C313.802000,729.737000,313.274000,729.523000,312.848000,729.097000C312.421000,728.671000,312.208000,728.143000,312.208000,727.513000C312.208000,726.883000,312.421000,726.355000,312.848000,725.929000C313.274000,725.503000,313.802000,725.289000,314.432000,725.289000C315.041000,725.289000,315.559000,725.503000,315.985000,725.929000C316.412000,726.355000,316.625000,726.883000,316.625000,727.513000C316.625000,728.143000,316.412000,728.671000,315.985000,729.097000C315.559000,729.523000,315.041000,729.737000,314.432000,729.737000ZM355.858000,708.353000L349.583000,729.523000L345.654000,729.523000L341.206000,713.501000L336.485000,729.523000L332.586000,729.554000L326.585000,708.353000L330.271000,708.353000L334.657000,725.594000L339.409000,708.353000L343.308000,708.353000L347.725000,725.503000L352.142000,708.353000L355.858000,708.353000ZM374.105000,720.720000C374.105000,721.350000,374.064000,721.918000,373.983000,722.426000L361.159000,722.426000C361.261000,723.766000,361.758000,724.843000,362.652000,725.655000C363.545000,726.467000,364.642000,726.873000,365.941000,726.873000C367.810000,726.873000,369.130000,726.091000,369.901000,724.528000L373.648000,724.528000C373.140000,726.071000,372.216000,727.340000,370.876000,728.335000C369.556000,729.310000,367.911000,729.798000,365.941000,729.798000C364.337000,729.798000,362.895000,729.442000,361.616000,728.731000C360.357000,728,359.362000,726.985000,358.631000,725.685000C357.920000,724.365000,357.565000,722.842000,357.565000,721.116000C357.565000,719.390000,357.910000,717.877000,358.600000,716.577000C359.311000,715.257000,360.296000,714.242000,361.555000,713.531000C362.834000,712.821000,364.297000,712.465000,365.941000,712.465000C367.525000,712.465000,368.937000,712.810000,370.176000,713.501000C371.414000,714.191000,372.379000,715.166000,373.069000,716.425000C373.760000,717.664000,374.105000,719.096000,374.105000,720.720000ZM370.480000,719.624000C370.460000,718.344000,370.003000,717.319000,369.109000,716.547000C368.216000,715.775000,367.109000,715.389000,365.789000,715.389000C364.591000,715.389000,363.566000,715.775000,362.713000,716.547000C361.860000,717.298000,361.352000,718.324000,361.190000,719.624000L370.480000,719.624000ZM384.278000,721.055000C384.278000,719.370000,384.623000,717.877000,385.313000,716.577000C386.024000,715.278000,386.979000,714.273000,388.177000,713.562000C389.395000,712.831000,390.735000,712.465000,392.198000,712.465000C393.517000,712.465000,394.665000,712.729000,395.640000,713.257000C396.635000,713.765000,397.427000,714.405000,398.016000,715.176000L398.016000,712.739000L401.519000,712.739000L401.519000,729.523000L398.016000,729.523000L398.016000,727.026000C397.427000,727.818000,396.625000,728.478000,395.609000,729.006000C394.594000,729.534000,393.436000,729.798000,392.137000,729.798000C390.695000,729.798000,389.375000,729.432000,388.177000,728.701000C386.979000,727.950000,386.024000,726.914000,385.313000,725.594000C384.623000,724.254000,384.278000,722.741000,384.278000,721.055000ZM398.016000,721.116000C398.016000,719.959000,397.772000,718.953000,397.285000,718.101000C396.817000,717.248000,396.198000,716.598000,395.426000,716.151000C394.655000,715.704000,393.822000,715.481000,392.929000,715.481000C392.035000,715.481000,391.202000,715.704000,390.431000,716.151000C389.659000,716.577000,389.030000,717.217000,388.542000,718.070000C388.075000,718.903000,387.842000,719.898000,387.842000,721.055000C387.842000,722.213000,388.075000,723.228000,388.542000,724.101000C389.030000,724.975000,389.659000,725.645000,390.431000,726.112000C391.223000,726.559000,392.055000,726.782000,392.929000,726.782000C393.822000,726.782000,394.655000,726.559000,395.426000,726.112000C396.198000,725.665000,396.817000,725.015000,397.285000,724.162000C397.772000,723.289000,398.016000,722.274000,398.016000,721.116000ZM409.552000,715.176000C410.060000,714.323000,410.730000,713.663000,411.563000,713.196000C412.416000,712.709000,413.421000,712.465000,414.578000,712.465000L414.578000,716.060000L413.695000,716.060000C412.334000,716.060000,411.299000,716.405000,410.588000,717.095000C409.897000,717.786000,409.552000,718.984000,409.552000,720.690000L409.552000,729.523000L406.080000,729.523000L406.080000,712.739000L409.552000,712.739000L409.552000,715.176000ZM433.153000,720.720000C433.153000,721.350000,433.113000,721.918000,433.031000,722.426000L420.207000,722.426000C420.309000,723.766000,420.806000,724.843000,421.700000,725.655000C422.593000,726.467000,423.690000,726.873000,424.990000,726.873000C426.858000,726.873000,428.178000,726.091000,428.950000,724.528000L432.696000,724.528000C432.189000,726.071000,431.265000,727.340000,429.924000,728.335000C428.604000,729.310000,426.959000,729.798000,424.990000,729.798000C423.385000,729.798000,421.943000,729.442000,420.664000,728.731000C419.405000,728,418.410000,726.985000,417.679000,725.685000C416.968000,724.365000,416.613000,722.842000,416.613000,721.116000C416.613000,719.390000,416.958000,717.877000,417.648000,716.577000C418.359000,715.257000,419.344000,714.242000,420.603000,713.531000C421.883000,712.821000,423.345000,712.465000,424.990000,712.465000C426.574000,712.465000,427.985000,712.810000,429.224000,713.501000C430.462000,714.191000,431.427000,715.166000,432.117000,716.425000C432.808000,717.664000,433.153000,719.096000,433.153000,720.720000ZM429.528000,719.624000C429.508000,718.344000,429.051000,717.319000,428.158000,716.547000C427.264000,715.775000,426.157000,715.389000,424.837000,715.389000C423.639000,715.389000,422.614000,715.775000,421.761000,716.547000C420.908000,717.298000,420.400000,718.324000,420.238000,719.624000L429.528000,719.624000ZM453.165000,712.465000C454.444000,712.465000,455.581000,712.739000,456.576000,713.288000C457.592000,713.836000,458.384000,714.648000,458.952000,715.725000C459.541000,716.801000,459.836000,718.101000,459.836000,719.624000L459.836000,729.523000L456.394000,729.523000L456.394000,720.141000C456.394000,718.639000,456.018000,717.491000,455.266000,716.699000C454.515000,715.887000,453.490000,715.481000,452.190000,715.481000C450.890000,715.481000,449.855000,715.887000,449.083000,716.699000C448.332000,717.491000,447.956000,718.639000,447.956000,720.141000L447.956000,729.523000L444.483000,729.523000L444.483000,706.982000L447.956000,706.982000L447.956000,714.689000C448.545000,713.978000,449.286000,713.430000,450.179000,713.044000C451.093000,712.658000,452.088000,712.465000,453.165000,712.465000ZM479.648000,720.720000C479.648000,721.350000,479.607000,721.918000,479.526000,722.426000L466.702000,722.426000C466.804000,723.766000,467.301000,724.843000,468.195000,725.655000C469.088000,726.467000,470.185000,726.873000,471.484000,726.873000C473.353000,726.873000,474.673000,726.091000,475.444000,724.528000L479.191000,724.528000C478.683000,726.071000,477.759000,727.340000,476.419000,728.335000C475.099000,729.310000,473.454000,729.798000,471.484000,729.798000C469.880000,729.798000,468.438000,729.442000,467.159000,728.731000C465.900000,728,464.905000,726.985000,464.174000,725.685000C463.463000,724.365000,463.108000,722.842000,463.108000,721.116000C463.108000,719.390000,463.453000,717.877000,464.143000,716.577000C464.854000,715.257000,465.839000,714.242000,467.098000,713.531000C468.377000,712.821000,469.839000,712.465000,471.484000,712.465000C473.068000,712.465000,474.480000,712.810000,475.718000,713.501000C476.957000,714.191000,477.922000,715.166000,478.612000,716.425000C479.303000,717.664000,479.648000,719.096000,479.648000,720.720000ZM476.023000,719.624000C476.003000,718.344000,475.546000,717.319000,474.652000,716.547000C473.759000,715.775000,472.652000,715.389000,471.332000,715.389000C470.134000,715.389000,469.108000,715.775000,468.256000,716.547000C467.403000,717.298000,466.895000,718.324000,466.732000,719.624000L476.023000,719.624000ZM486.538000,715.176000C487.046000,714.323000,487.716000,713.663000,488.548000,713.196000C489.401000,712.709000,490.406000,712.465000,491.564000,712.465000L491.564000,716.060000L490.681000,716.060000C489.320000,716.060000,488.284000,716.405000,487.574000,717.095000C486.883000,717.786000,486.538000,718.984000,486.538000,720.690000L486.538000,729.523000L483.065000,729.523000L483.065000,712.739000L486.538000,712.739000L486.538000,715.176000ZM510.139000,720.720000C510.139000,721.350000,510.098000,721.918000,510.017000,722.426000L497.193000,722.426000C497.294000,723.766000,497.792000,724.843000,498.685000,725.655000C499.579000,726.467000,500.676000,726.873000,501.975000,726.873000C503.844000,726.873000,505.163000,726.091000,505.935000,724.528000L509.682000,724.528000C509.174000,726.071000,508.250000,727.340000,506.910000,728.335000C505.590000,729.310000,503.945000,729.798000,501.975000,729.798000C500.371000,729.798000,498.929000,729.442000,497.650000,728.731000C496.391000,728,495.396000,726.985000,494.665000,725.685000C493.954000,724.365000,493.598000,722.842000,493.598000,721.116000C493.598000,719.390000,493.944000,717.877000,494.634000,716.577000C495.345000,715.257000,496.330000,714.242000,497.589000,713.531000C498.868000,712.821000,500.330000,712.465000,501.975000,712.465000C503.559000,712.465000,504.971000,712.810000,506.209000,713.501000C507.448000,714.191000,508.413000,715.166000,509.103000,716.425000C509.794000,717.664000,510.139000,719.096000,510.139000,720.720000ZM506.514000,719.624000C506.494000,718.344000,506.037000,717.319000,505.143000,716.547000C504.250000,715.775000,503.143000,715.389000,501.823000,715.389000C500.625000,715.389000,499.599000,715.775000,498.746000,716.547000C497.893000,717.298000,497.386000,718.324000,497.223000,719.624000L506.514000,719.624000ZM528.505000,715.572000L525.398000,715.572000L525.398000,729.523000L521.895000,729.523000L521.895000,715.572000L519.915000,715.572000L519.915000,712.739000L521.895000,712.739000L521.895000,711.551000C521.895000,709.622000,522.403000,708.221000,523.418000,707.348000C524.454000,706.454000,526.069000,706.007000,528.262000,706.007000L528.262000,708.901000C527.206000,708.901000,526.464000,709.104000,526.038000,709.511000C525.612000,709.896000,525.398000,710.577000,525.398000,711.551000L525.398000,712.739000L528.505000,712.739000L528.505000,715.572000ZM538.863000,729.798000C537.279000,729.798000,535.847000,729.442000,534.568000,728.731000C533.289000,728,532.284000,726.985000,531.552000,725.685000C530.821000,724.365000,530.456000,722.842000,530.456000,721.116000C530.456000,719.410000,530.832000,717.897000,531.583000,716.577000C532.334000,715.257000,533.360000,714.242000,534.659000,713.531000C535.959000,712.821000,537.411000,712.465000,539.015000,712.465000C540.620000,712.465000,542.072000,712.821000,543.371000,713.531000C544.671000,714.242000,545.697000,715.257000,546.448000,716.577000C547.199000,717.897000,547.575000,719.410000,547.575000,721.116000C547.575000,722.822000,547.189000,724.335000,546.417000,725.655000C545.646000,726.975000,544.590000,728,543.250000,728.731000C541.930000,729.442000,540.467000,729.798000,538.863000,729.798000ZM538.863000,726.782000C539.757000,726.782000,540.589000,726.569000,541.361000,726.142000C542.153000,725.716000,542.793000,725.076000,543.280000,724.223000C543.767000,723.370000,544.011000,722.335000,544.011000,721.116000C544.011000,719.898000,543.778000,718.872000,543.310000,718.040000C542.843000,717.187000,542.224000,716.547000,541.452000,716.121000C540.681000,715.694000,539.848000,715.481000,538.955000,715.481000C538.061000,715.481000,537.228000,715.694000,536.457000,716.121000C535.705000,716.547000,535.106000,717.187000,534.659000,718.040000C534.213000,718.872000,533.989000,719.898000,533.989000,721.116000C533.989000,722.924000,534.446000,724.325000,535.360000,725.320000C536.294000,726.295000,537.462000,726.782000,538.863000,726.782000ZM554.480000,715.176000C554.988000,714.323000,555.658000,713.663000,556.491000,713.196000C557.344000,712.709000,558.349000,712.465000,559.506000,712.465000L559.506000,716.060000L558.623000,716.060000C557.262000,716.060000,556.227000,716.405000,555.516000,717.095000C554.826000,717.786000,554.480000,718.984000,554.480000,720.690000L554.480000,729.523000L551.008000,729.523000L551.008000,712.739000L554.480000,712.739000L554.480000,715.176000ZM135.080000,757.739000L124.784000,782.413000L121.190000,782.413000L124.602000,774.249000L117.992000,757.739000L121.860000,757.739000L126.582000,770.533000L131.486000,757.739000L135.080000,757.739000ZM144.981000,774.798000C143.397000,774.798000,141.965000,774.442000,140.686000,773.731000C139.407000,773,138.401000,771.985000,137.670000,770.685000C136.939000,769.365000,136.574000,767.842000,136.574000,766.116000C136.574000,764.410000,136.950000,762.897000,137.701000,761.577000C138.452000,760.257000,139.478000,759.242000,140.777000,758.531000C142.077000,757.821000,143.529000,757.465000,145.133000,757.465000C146.738000,757.465000,148.190000,757.821000,149.489000,758.531000C150.789000,759.242000,151.815000,760.257000,152.566000,761.577000C153.317000,762.897000,153.693000,764.410000,153.693000,766.116000C153.693000,767.822000,153.307000,769.335000,152.535000,770.655000C151.764000,771.975000,150.708000,773,149.367000,773.731000C148.048000,774.442000,146.585000,774.798000,144.981000,774.798000ZM144.981000,771.782000C145.875000,771.782000,146.707000,771.569000,147.479000,771.142000C148.271000,770.716000,148.911000,770.076000,149.398000,769.223000C149.885000,768.370000,150.129000,767.335000,150.129000,766.116000C150.129000,764.898000,149.895000,763.872000,149.428000,763.040000C148.961000,762.187000,148.342000,761.547000,147.570000,761.121000C146.799000,760.694000,145.966000,760.481000,145.072000,760.481000C144.179000,760.481000,143.346000,760.694000,142.575000,761.121000C141.823000,761.547000,141.224000,762.187000,140.777000,763.040000C140.331000,763.872000,140.107000,764.898000,140.107000,766.116000C140.107000,767.924000,140.564000,769.325000,141.478000,770.320000C142.412000,771.295000,143.580000,771.782000,144.981000,771.782000ZM172.326000,757.739000L172.326000,774.523000L168.853000,774.523000L168.853000,772.543000C168.305000,773.234000,167.584000,773.782000,166.691000,774.188000C165.817000,774.574000,164.883000,774.767000,163.888000,774.767000C162.568000,774.767000,161.380000,774.493000,160.324000,773.945000C159.289000,773.396000,158.466000,772.584000,157.857000,771.508000C157.268000,770.431000,156.973000,769.132000,156.973000,767.609000L156.973000,757.739000L160.416000,757.739000L160.416000,767.091000C160.416000,768.594000,160.791000,769.751000,161.543000,770.563000C162.294000,771.355000,163.320000,771.751000,164.619000,771.751000C165.919000,771.751000,166.944000,771.355000,167.696000,770.563000C168.467000,769.751000,168.853000,768.594000,168.853000,767.091000L168.853000,757.739000L172.326000,757.739000ZM178.309000,774.737000C177.679000,774.737000,177.151000,774.523000,176.725000,774.097000C176.298000,773.671000,176.085000,773.143000,176.085000,772.513000C176.085000,771.883000,176.298000,771.355000,176.725000,770.929000C177.151000,770.503000,177.679000,770.289000,178.309000,770.289000C178.918000,770.289000,179.436000,770.503000,179.862000,770.929000C180.289000,771.355000,180.502000,771.883000,180.502000,772.513000C180.502000,773.143000,180.289000,773.671000,179.862000,774.097000C179.436000,774.523000,178.918000,774.737000,178.309000,774.737000Z" fill="rgb(197,212,215)" stroke="none" stroke-width="1"/></g></g><g id="ecLA41mh3Hp8_ts" transform="translate(367.563500,132.950000) scale(2.840166,2.979253)"><g id="ecLA41mh3Hp8" transform="translate(-367.563500,-132.950000)" clip-path="url(#ecLA41mh3Hp13)"><g id="ecLA41mh3Hp9"><g id="ecLA41mh3Hp10"><g id="ecLA41mh3Hp11"><path id="ecLA41mh3Hp12" d="M359.903000,254.430000L377.722000,254.430000L376.224000,261.502000L348.279000,261.502000C348.965000,258.573000,350.159000,255.888000,351.848000,253.474000C353.576000,250.742000,356.888000,247.866000,361.783000,244.825000C366.045000,242.186000,368.835000,240.279000,370.175000,239.145000C372.220000,237.357000,373.467000,235.411000,373.915000,233.273000C374.298000,231.551000,374.120000,230.113000,373.401000,228.972000C372.701000,227.824000,371.441000,227.250000,369.660000,227.250000C367.226000,227.250000,365.372000,228.167000,364.085000,229.981000C363.360000,231.030000,362.707000,232.712000,362.139000,235.002000L354.335000,235.002000C355.199000,231.525000,356.413000,228.721000,358.003000,226.590000C361.005000,222.507000,365.240000,220.468000,370.696000,220.468000C375.017000,220.468000,378.203000,221.669000,380.235000,224.057000C382.294000,226.458000,382.881000,229.625000,382.030000,233.563000C381.383000,236.578000,379.938000,239.270000,377.636000,241.605000C376.125000,243.169000,373.796000,244.917000,370.676000,246.824000L366.988000,249.106000C364.673000,250.538000,363.083000,251.567000,362.192000,252.214000C361.361000,252.854000,360.582000,253.592000,359.903000,254.430000ZM381.918000,252.715000L383.422000,245.709000L403.688000,220.923000L412.687000,220.923000L407.257000,246.434000L411.875000,246.434000L410.562000,252.702000L405.944000,252.702000L404.097000,261.489000L396.247000,261.489000L398.107000,252.702000L381.918000,252.715000ZM389.194000,246.441000L399.420000,246.441000L403.154000,228.807000L389.194000,246.441000ZM393.390000,320.672000C393.416000,320.672000,393.430000,320.672000,393.456000,320.672000L393.456000,334.441000C393.456000,342.463000,386.898000,349.033000,378.870000,349.033000L282.518000,349.033000C274.489000,349.033000,267.925000,342.463000,267.925000,334.441000L267.925000,147.537000C267.925000,139.508000,274.489000,132.950000,282.518000,132.950000L378.863000,132.950000C386.892000,132.950000,393.449000,139.508000,393.449000,147.537000L393.377000,160.487000C434.609000,163.897000,467.199000,198.480000,467.199000,240.583000C467.199000,282.673000,434.609000,317.262000,393.390000,320.672000ZM313.505000,145.234000C313.505000,146.210000,314.297000,146.996000,315.273000,146.996000L346.095000,146.996000C347.071000,146.996000,347.870000,146.217000,347.870000,145.234000C347.870000,144.251000,347.085000,143.459000,346.095000,143.459000L315.273000,143.459000C314.297000,143.466000,313.505000,144.258000,313.505000,145.234000ZM337.987000,334.441000C337.987000,330.403000,334.715000,327.157000,330.684000,327.157000C326.666000,327.157000,323.401000,330.403000,323.401000,334.441000C323.401000,338.465000,326.666000,341.737000,330.684000,341.737000C334.715000,341.737000,337.987000,338.465000,337.987000,334.441000ZM447.408000,240.576000C447.408000,207.148000,420.207000,179.948000,386.793000,179.948000C385.506000,179.948000,384.372000,180.067000,383.105000,180.140000L383.105000,160.348000C383.151000,160.348000,383.065000,160.348000,383.105000,160.342000L383.105000,156.086000L278.078000,156.086000L278.078000,322.018000L383.283000,322.018000L383.283000,320.837000L383.244000,320.824000C340.540000,318.970000,306.347000,283.741000,306.347000,240.576000C306.347000,240.121000,306.387000,239.659000,306.420000,239.211000L294.281000,239.211000L315.900000,217.598000L337.499000,239.197000L326.205000,239.197000C326.172000,239.653000,326.132000,240.121000,326.132000,240.576000C326.132000,274.011000,353.332000,301.211000,386.760000,301.211000C420.201000,301.217000,447.408000,274.017000,447.408000,240.576000Z" fill="rgb(120,203,187)" stroke="none" stroke-width="1"/></g></g></g><clipPath id="ecLA41mh3Hp13"><rect id="ecLA41mh3Hp14" width="216.083000" height="216.083000" rx="0" ry="0" transform="matrix(1 0 0 1 259.52199999999999 132.95099999999999)" fill="rgb(255,255,255)" stroke="none" stroke-width="1"/></clipPath></g></g></svg>