<svg id="ee9WxuyhKCm1" xmlns="http://www.w3.org/2000/svg" xmlns:xlink="http://www.w3.org/1999/xlink" viewBox="0 0 1696 598" shape-rendering="geometricPrecision" text-rendering="geometricPrecision"><defs><linearGradient id="ee9WxuyhKCm2-fill" x1="-283" y1="-358" x2="283" y2="363.500000" spreadMethod="pad" gradientUnits="userSpaceOnUse"><stop id="ee9WxuyhKCm2-fill-0" offset="8.333330%" stop-color="rgb(51,230,246)"/><stop id="ee9WxuyhKCm2-fill-1" offset="48.958300%" stop-color="rgb(30,113,237)"/><stop id="ee9WxuyhKCm2-fill-2" offset="89.583300%" stop-color="rgb(51,230,246)"/></linearGradient></defs><circle id="ee9WxuyhKCm2" r="283" transform="matrix(0.05000000000000 0 0 0.05000000000000 291.31199999999956 298.99999999999898)" fill="url(#ee9WxuyhKCm2-fill)" stroke="none" stroke-width="1"/><g id="ee9WxuyhKCm3" transform="matrix(1 0 0 1 -148.10898999000000 175.98175600000002)"><path id="ee9WxuyhKCm4" d="M330.923000,543.521000L437.421000,442.977000" fill="none" stroke="rgb(255,255,255)" stroke-width="60" stroke-linecap="round" stroke-linejoin="round"/></g><g id="ee9WxuyhKCm5" transform="matrix(1 0 0 1 -175.98175599999999 178.34499499500026)"><path id="ee9WxuyhKCm6" d="M47.485600,262.958000L152.421000,163.977000" fill="none" stroke="rgb(255,255,255)" stroke-width="60" stroke-linecap="round" stroke-linejoin="round"/></g><g id="ee9WxuyhKCm7" transform="matrix(1 0 0 1 -277.76922396000003 271.87600124000005)"><path id="ee9WxuyhKCm8" d="M56.345700,389.677000L257.671000,194.306000" fill="none" stroke="rgb(255,255,255)" stroke-width="60" stroke-linecap="round" stroke-linejoin="round"/></g><g id="ee9WxuyhKCm9" transform="matrix(1 0 0 1 -282.34435600000000 274.60889400000008)"><path id="ee9WxuyhKCm10" d="M202.924000,530.506000L397.063000,342.322000" fill="none" stroke="rgb(255,255,255)" stroke-width="60" stroke-linecap="round" stroke-linejoin="round"/></g><g id="ee9WxuyhKCm11" transform="matrix(1 0 0 1 -502.08938121999995 500.96135132000023)"><g id="ee9WxuyhKCm12"><path id="ee9WxuyhKCm13" d="M43,554.500000L396.283000,202" fill="none" stroke="rgb(255,255,255)" stroke-width="60" stroke-linecap="round" stroke-linejoin="round"/></g><g id="ee9WxuyhKCm14"><path id="ee9WxuyhKCm15" d="M473.345000,123.782000L424.034000,307.815000L289.312000,173.093000L473.345000,123.782000Z" fill="rgb(255,255,255)" stroke="none" stroke-width="1"/></g></g><g id="ee9WxuyhKCm16" opacity="0"><path id="ee9WxuyhKCm17" d="M730.064000,388.456000C718.160000,388.456000,705.872000,386.344000,693.200000,382.120000C680.720000,377.704000,669.392000,370.888000,659.216000,361.672000L687.440000,327.688000C694.160000,333.064000,701.360000,337.480000,709.040000,340.936000C716.912000,344.200000,724.304000,345.832000,731.216000,345.832000C738.704000,345.832000,744.080000,344.680000,747.344000,342.376000C750.800000,340.072000,752.528000,336.808000,752.528000,332.584000C752.528000,330.280000,751.952000,328.360000,750.800000,326.824000C749.648000,325.288000,747.920000,323.848000,745.616000,322.504000C743.504000,321.160000,740.912000,319.912000,737.840000,318.760000C734.768000,317.416000,731.216000,315.976000,727.184000,314.440000L703.856000,304.648000C698.864000,302.728000,694.064000,300.232000,689.456000,297.160000C684.848000,293.896000,680.816000,290.152000,677.360000,285.928000C673.904000,281.512000,671.120000,276.520000,669.008000,270.952000C667.088000,265.384000,666.128000,259.240000,666.128000,252.520000C666.128000,244.456000,667.856000,236.968000,671.312000,230.056000C674.768000,222.952000,679.568000,216.808000,685.712000,211.624000C691.856000,206.248000,699.152000,202.024000,707.600000,198.952000C716.240000,195.880000,725.648000,194.344000,735.824000,194.344000C746.576000,194.344000,757.424000,196.360000,768.368000,200.392000C779.504000,204.424000,789.392000,210.760000,798.032000,219.400000L773.264000,250.504000C766.928000,246.088000,760.784000,242.728000,754.832000,240.424000C749.072000,238.120000,742.736000,236.968000,735.824000,236.968000C729.680000,236.968000,724.880000,238.024000,721.424000,240.136000C717.968000,242.248000,716.240000,245.416000,716.240000,249.640000C716.240000,254.056000,718.640000,257.512000,723.440000,260.008000C728.432000,262.312000,735.248000,265.096000,743.888000,268.360000L766.640000,277.288000C778.352000,281.896000,787.376000,288.328000,793.712000,296.584000C800.048000,304.840000,803.216000,315.496000,803.216000,328.552000C803.216000,336.424000,801.584000,344.008000,798.320000,351.304000C795.056000,358.600000,790.256000,365.032000,783.920000,370.600000C777.776000,375.976000,770.192000,380.296000,761.168000,383.560000C752.144000,386.824000,741.776000,388.456000,730.064000,388.456000ZM879.876000,388.456000C870.468000,388.456000,862.404000,387.112000,855.684000,384.424000C849.156000,381.544000,843.684000,377.512000,839.268000,372.328000C835.044000,367.144000,831.876000,361,829.764000,353.896000C827.844000,346.600000,826.884000,338.536000,826.884000,329.704000L826.884000,279.592000L807.876000,279.592000L807.876000,242.728000L829.764000,241L835.524000,203.560000L876.420000,203.560000L876.420000,241L909.252000,241L909.252000,279.592000L876.420000,279.592000L876.420000,328.840000C876.420000,336.904000,878.148000,342.472000,881.604000,345.544000C885.060000,348.424000,889.092000,349.864000,893.700000,349.864000C896.004000,349.864000,898.212000,349.672000,900.324000,349.288000C902.628000,348.712000,904.644000,348.136000,906.372000,347.560000L913.860000,383.272000C910.020000,384.424000,905.412000,385.576000,900.036000,386.728000C894.660000,387.880000,887.940000,388.456000,879.876000,388.456000ZM994.171000,388.456000C984.955000,388.456000,976.027000,386.824000,967.387000,383.560000C958.747000,380.104000,951.067000,375.208000,944.347000,368.872000C937.819000,362.344000,932.539000,354.376000,928.507000,344.968000C924.667000,335.560000,922.747000,324.904000,922.747000,313C922.747000,301.096000,924.667000,290.440000,928.507000,281.032000C932.539000,271.624000,937.819000,263.752000,944.347000,257.416000C951.067000,250.888000,958.747000,245.992000,967.387000,242.728000C976.027000,239.272000,984.955000,237.544000,994.171000,237.544000C1003.390000,237.544000,1012.220000,239.272000,1020.670000,242.728000C1029.310000,245.992000,1036.890000,250.888000,1043.420000,257.416000C1050.140000,263.752000,1055.520000,271.624000,1059.550000,281.032000C1063.580000,290.440000,1065.600000,301.096000,1065.600000,313C1065.600000,324.904000,1063.580000,335.560000,1059.550000,344.968000C1055.520000,354.376000,1050.140000,362.344000,1043.420000,368.872000C1036.890000,375.208000,1029.310000,380.104000,1020.670000,383.560000C1012.220000,386.824000,1003.390000,388.456000,994.171000,388.456000ZM994.171000,348.712000C1001.660000,348.712000,1006.940000,345.544000,1010.010000,339.208000C1013.280000,332.680000,1014.910000,323.944000,1014.910000,313C1014.910000,302.056000,1013.280000,293.416000,1010.010000,287.080000C1006.940000,280.552000,1001.660000,277.288000,994.171000,277.288000C986.683000,277.288000,981.307000,280.552000,978.043000,287.080000C974.971000,293.416000,973.435000,302.056000,973.435000,313C973.435000,323.944000,974.971000,332.680000,978.043000,339.208000C981.307000,345.544000,986.683000,348.712000,994.171000,348.712000ZM1156.480000,388.456000C1146.300000,388.456000,1136.800000,386.824000,1127.970000,383.560000C1119.140000,380.104000,1111.460000,375.208000,1104.930000,368.872000C1098.400000,362.344000,1093.220000,354.376000,1089.380000,344.968000C1085.730000,335.560000,1083.900000,324.904000,1083.900000,313C1083.900000,301.096000,1086.020000,290.440000,1090.240000,281.032000C1094.460000,271.624000,1100.130000,263.752000,1107.230000,257.416000C1114.340000,250.888000,1122.500000,245.992000,1131.710000,242.728000C1141.120000,239.272000,1150.910000,237.544000,1161.090000,237.544000C1169.730000,237.544000,1177.500000,238.888000,1184.420000,241.576000C1191.330000,244.264000,1197.570000,247.912000,1203.140000,252.520000L1180.100000,284.200000C1176.830000,281.512000,1173.950000,279.688000,1171.460000,278.728000C1169.150000,277.768000,1166.660000,277.288000,1163.970000,277.288000C1154.750000,277.288000,1147.550000,280.552000,1142.370000,287.080000C1137.180000,293.416000,1134.590000,302.056000,1134.590000,313C1134.590000,323.944000,1137.180000,332.680000,1142.370000,339.208000C1147.740000,345.544000,1154.370000,348.712000,1162.240000,348.712000C1166.270000,348.712000,1170.210000,347.848000,1174.050000,346.120000C1178.080000,344.392000,1181.820000,342.184000,1185.280000,339.496000L1204.290000,371.752000C1196.990000,378.088000,1189.020000,382.504000,1180.380000,385C1171.940000,387.304000,1163.970000,388.456000,1156.480000,388.456000ZM1227.240000,385L1227.240000,184.552000L1275.620000,184.552000L1275.620000,291.112000L1276.770000,291.112000L1316.520000,241L1370.080000,241L1318.820000,300.904000L1372.960000,385L1319.400000,385L1290.600000,333.736000L1275.620000,350.440000L1275.620000,385L1227.240000,385Z" fill="rgb(255,255,255)" stroke="none" stroke-width="1"/><path id="ee9WxuyhKCm18" d="M1394.950000,385L1394.950000,197.800000L1463.500000,197.800000C1473.670000,197.800000,1483.370000,198.856000,1492.590000,200.968000C1501.800000,202.888000,1509.870000,206.344000,1516.780000,211.336000C1523.690000,216.136000,1529.160000,222.568000,1533.190000,230.632000C1537.420000,238.504000,1539.530000,248.296000,1539.530000,260.008000C1539.530000,271.528000,1537.420000,281.416000,1533.190000,289.672000C1529.160000,297.928000,1523.690000,304.744000,1516.780000,310.120000C1509.870000,315.304000,1501.900000,319.240000,1492.870000,321.928000C1483.850000,324.424000,1474.440000,325.672000,1464.650000,325.672000L1444.490000,325.672000L1444.490000,385L1394.950000,385ZM1444.490000,286.504000L1462.350000,286.504000C1472.140000,286.504000,1479.340000,284.200000,1483.950000,279.592000C1488.750000,274.984000,1491.150000,268.456000,1491.150000,260.008000C1491.150000,251.560000,1488.550000,245.608000,1483.370000,242.152000C1478.190000,238.696000,1470.790000,236.968000,1461.190000,236.968000L1444.490000,236.968000L1444.490000,286.504000ZM1627.330000,388.456000C1616.770000,388.456000,1606.980000,386.824000,1597.960000,383.560000C1588.930000,380.104000,1581.060000,375.208000,1574.340000,368.872000C1567.810000,362.344000,1562.630000,354.376000,1558.790000,344.968000C1554.950000,335.560000,1553.030000,324.904000,1553.030000,313C1553.030000,301.288000,1554.950000,290.824000,1558.790000,281.608000C1562.820000,272.200000,1568,264.232000,1574.340000,257.704000C1580.870000,251.176000,1588.260000,246.184000,1596.520000,242.728000C1604.770000,239.272000,1613.320000,237.544000,1622.150000,237.544000C1632.710000,237.544000,1641.920000,239.368000,1649.800000,243.016000C1657.670000,246.664000,1664.200000,251.656000,1669.380000,257.992000C1674.560000,264.328000,1678.400000,271.720000,1680.900000,280.168000C1683.590000,288.616000,1684.930000,297.640000,1684.930000,307.240000C1684.930000,311.656000,1684.640000,315.784000,1684.070000,319.624000C1683.680000,323.464000,1683.300000,326.248000,1682.920000,327.976000L1600.840000,327.976000C1603.140000,336.616000,1607.270000,342.664000,1613.220000,346.120000C1619.170000,349.384000,1626.180000,351.016000,1634.240000,351.016000C1639.240000,351.016000,1644.040000,350.344000,1648.640000,349C1653.440000,347.464000,1658.440000,345.256000,1663.620000,342.376000L1679.750000,371.752000C1671.880000,377.320000,1663.140000,381.544000,1653.540000,384.424000C1644.130000,387.112000,1635.400000,388.456000,1627.330000,388.456000ZM1600.260000,295.720000L1642.880000,295.720000C1642.880000,290.152000,1641.440000,285.352000,1638.560000,281.320000C1635.880000,277.096000,1630.790000,274.984000,1623.300000,274.984000C1617.730000,274.984000,1612.840000,276.616000,1608.610000,279.880000C1604.580000,283.144000,1601.800000,288.424000,1600.260000,295.720000Z" fill="rgb(51,230,246)" stroke="none" stroke-width="1"/></g><script><![CDATA[!function(t,n){"object"==typeof exports&&"undefined"!=typeof module?module.exports=n():"function"==typeof define&&define.amd?define(n):(t="undefined"!=typeof globalThis?globalThis:t||self).__SVGATOR_PLAYER__=n()}(this,(function(){"use strict";function t(n){return(t="function"==typeof Symbol&&"symbol"==typeof Symbol.iterator?function(t){return typeof t}:function(t){return t&&"function"==typeof Symbol&&t.constructor===Symbol&&t!==Symbol.prototype?"symbol":typeof t})(n)}function n(t,n){if(!(t instanceof n))throw new TypeError("Cannot call a class as a function")}function r(t,n){for(var r=0;r<n.length;r++){var e=n[r];e.enumerable=e.enumerable||!1,e.configurable=!0,"value"in e&&(e.writable=!0),Object.defineProperty(t,e.key,e)}}function e(t,n,e){return n&&r(t.prototype,n),e&&r(t,e),t}function i(t){return(i=Object.setPrototypeOf?Object.getPrototypeOf:function(t){return t.__proto__||Object.getPrototypeOf(t)})(t)}function o(t,n){return(o=Object.setPrototypeOf||function(t,n){return t.__proto__=n,t})(t,n)}function u(t,n){return!n||"object"!=typeof n&&"function"!=typeof n?function(t){if(void 0===t)throw new ReferenceError("this hasn't been initialised - super() hasn't been called");return t}(t):n}function a(t){var n=function(){if("undefined"==typeof Reflect||!Reflect.construct)return!1;if(Reflect.construct.sham)return!1;if("function"==typeof Proxy)return!0;try{return Boolean.prototype.valueOf.call(Reflect.construct(Boolean,[],(function(){}))),!0}catch(t){return!1}}();return function(){var r,e=i(t);if(n){var o=i(this).constructor;r=Reflect.construct(e,arguments,o)}else r=e.apply(this,arguments);return u(this,r)}}function l(t,n,r){return(l="undefined"!=typeof Reflect&&Reflect.get?Reflect.get:function(t,n,r){var e=function(t,n){for(;!Object.prototype.hasOwnProperty.call(t,n)&&null!==(t=i(t)););return t}(t,n);if(e){var o=Object.getOwnPropertyDescriptor(e,n);return o.get?o.get.call(r):o.value}})(t,n,r||t)}var f=Math.abs;function s(t){return t}function c(t,n,r){var e=1-r;return 3*r*e*(t*e+n*r)+r*r*r}function h(){var t=arguments.length>0&&void 0!==arguments[0]?arguments[0]:0,n=arguments.length>1&&void 0!==arguments[1]?arguments[1]:0,r=arguments.length>2&&void 0!==arguments[2]?arguments[2]:1,e=arguments.length>3&&void 0!==arguments[3]?arguments[3]:1;return t<0||t>1||r<0||r>1?null:f(t-n)<=1e-5&&f(r-e)<=1e-5?s:function(i){if(i<=0)return t>0?i*n/t:0===n&&r>0?i*e/r:0;if(i>=1)return r<1?1+(i-1)*(e-1)/(r-1):1===r&&t<1?1+(i-1)*(n-1)/(t-1):1;for(var o,u=0,a=1;u<a;){var l=c(t,r,o=(u+a)/2);if(f(i-l)<1e-5)break;l<i?u=o:a=o}return c(n,e,o)}}function v(){return 1}function y(t){return 1===t?1:0}function d(){var t=arguments.length>0&&void 0!==arguments[0]?arguments[0]:1,n=arguments.length>1&&void 0!==arguments[1]?arguments[1]:0;if(1===t){if(0===n)return y;if(1===n)return v}var r=1/t;return function(t){return t>=1?1:(t+=n*r)-t%r}}function g(t){var n=arguments.length>1&&void 0!==arguments[1]?arguments[1]:2;if(Number.isInteger(t))return t;var r=Math.pow(10,n);return Math.round(t*r)/r}var p=Math.PI/180;function m(t,n,r){return t>=.5?r:n}function b(t,n,r){return 0===t||n===r?n:t*(r-n)+n}function w(t,n,r){var e=b(t,n,r);return e<=0?0:e}function x(t,n,r){return 0===t?n:1===t?r:{x:b(t,n.x,r.x),y:b(t,n.y,r.y)}}function k(t,n,r){var e=function(t,n,r){return Math.round(b(t,n,r))}(t,n,r);return e<=0?0:e>=255?255:e}function A(t,n,r){return 0===t?n:1===t?r:{r:k(t,n.r,r.r),g:k(t,n.g,r.g),b:k(t,n.b,r.b),a:b(t,null==n.a?1:n.a,null==r.a?1:r.a)}}function _(t,n,r){if(0===t)return n;if(1===t)return r;var e=n.length;if(e!==r.length)return m(t,n,r);for(var i=[],o=0;o<e;o++)i.push(A(t,n[o],r[o]));return i}function S(t,n){for(var r=[],e=0;e<t;e++)r.push(n);return r}function O(t,n){if(--n<=0)return t;var r=(t=Object.assign([],t)).length;do{for(var e=0;e<r;e++)t.push(t[e])}while(--n>0);return t}var M,j=function(){function t(r){n(this,t),this.list=r,this.length=r.length}return e(t,[{key:"setAttribute",value:function(t,n){for(var r=this.list,e=0;e<this.length;e++)r[e].setAttribute(t,n)}},{key:"removeAttribute",value:function(t){for(var n=this.list,r=0;r<this.length;r++)n[r].removeAttribute(t)}},{key:"style",value:function(t,n){for(var r=this.list,e=0;e<this.length;e++)r[e].style[t]=n}}]),t}(),F=/-./g,P=function(t,n){return n.toUpperCase()};function B(t){return"function"==typeof t?t:m}function I(t){return t?"function"==typeof t?t:Array.isArray(t)?function(t){var n=arguments.length>1&&void 0!==arguments[1]?arguments[1]:s;if(!Array.isArray(t))return n;switch(t.length){case 1:return d(t[0])||n;case 2:return d(t[0],t[1])||n;case 4:return h(t[0],t[1],t[2],t[3])||n}return n}(t,null):function(t,n){var r=arguments.length>2&&void 0!==arguments[2]?arguments[2]:s;switch(t){case"linear":return s;case"steps":return d(n.steps||1,n.jump||0)||r;case"bezier":case"cubic-bezier":return h(n.x1||0,n.y1||0,n.x2||0,n.y2||0)||r}return r}(t.type,t.value,null):null}function R(t,n,r){var e=arguments.length>3&&void 0!==arguments[3]&&arguments[3],i=n.length-1;if(t<=n[0].t)return e?[0,0,n[0].v]:n[0].v;if(t>=n[i].t)return e?[i,1,n[i].v]:n[i].v;var o,u=n[0],a=null;for(o=1;o<=i;o++){if(!(t>n[o].t)){a=n[o];break}u=n[o]}return null==a?e?[i,1,n[i].v]:n[i].v:u.t===a.t?e?[o,1,a.v]:a.v:(t=(t-u.t)/(a.t-u.t),u.e&&(t=u.e(t)),e?[o,t,r(t,u.v,a.v)]:r(t,u.v,a.v))}function q(t,n){var r=arguments.length>2&&void 0!==arguments[2]?arguments[2]:null;return t&&t.length?"function"!=typeof n?null:("function"!=typeof r&&(r=null),function(e){var i=R(e,t,n);return null!=i&&r&&(i=r(i)),i}):null}function E(t,n){return t.t-n.t}function T(n,r,e,i,o){var u,a="@"===e[0],l="#"===e[0],f=M[e],s=m;switch(a?(u=e.substr(1),e=u.replace(F,P)):l&&(e=e.substr(1)),t(f)){case"function":if(s=f(i,o,R,I,e,a,r,n),l)return s;break;case"string":s=q(i,B(f));break;case"object":if((s=q(i,B(f.i),f.f))&&"function"==typeof f.u)return f.u(r,s,e,a,n)}return s?function(t,n,r){var e=arguments.length>3&&void 0!==arguments[3]&&arguments[3];if(e)return t instanceof j?function(e){return t.style(n,r(e))}:function(e){return t.style[n]=r(e)};if(Array.isArray(n)){var i=n.length;return function(e){var o=r(e);if(null==o)for(var u=0;u<i;u++)t[u].removeAttribute(n);else for(var a=0;a<i;a++)t[a].setAttribute(n,o)}}return function(e){var i=r(e);null==i?t.removeAttribute(n):t.setAttribute(n,i)}}(r,e,s,a):null}function N(n,r,e,i){if(!i||"object"!==t(i))return null;var o=null,u=null;return Array.isArray(i)?u=function(t){if(!t||!t.length)return null;for(var n=0;n<t.length;n++)t[n].e&&(t[n].e=I(t[n].e));return t.sort(E)}(i):(u=i.keys,o=i.data||null),u?T(n,r,e,u,o):null}function C(t,n,r){if(!r)return null;var e=[];for(var i in r)if(r.hasOwnProperty(i)){var o=N(t,n,i,r[i]);o&&e.push(o)}return e.length?e:null}function z(t,n){if(!n.duration||n.duration<0)return null;var r=function(t,n){if(!n)return null;var r=[];if(Array.isArray(n))for(var e=n.length,i=0;i<e;i++){var o=n[i];if(2===o.length){var u=null;if("string"==typeof o[0])u=t.getElementById(o[0]);else if(Array.isArray(o[0])){u=[];for(var a=0;a<o[0].length;a++)if("string"==typeof o[0][a]){var l=t.getElementById(o[0][a]);l&&u.push(l)}u=u.length?1===u.length?u[0]:new j(u):null}if(u){var f=C(t,u,o[1]);f&&(r=r.concat(f))}}}else for(var s in n)if(n.hasOwnProperty(s)){var c=t.getElementById(s);if(c){var h=C(t,c,n[s]);h&&(r=r.concat(h))}}return r.length?r:null}(t,n.elements);return r?function(t,n){var r=arguments.length>2&&void 0!==arguments[2]?arguments[2]:1/0,e=arguments.length>3&&void 0!==arguments[3]?arguments[3]:1,i=arguments.length>4&&void 0!==arguments[4]&&arguments[4],o=arguments.length>5&&void 0!==arguments[5]?arguments[5]:1,u=t.length,a=e>0?n:0;i&&r%2==0&&(a=n-a);var l=null;return function(f,s){var c=f%n,h=1+(f-c)/n;s*=e,i&&h%2==0&&(s=-s);var v=!1;if(h>r)c=a,v=!0,-1===o&&(c=e>0?0:n);else if(s<0&&(c=n-c),c===l)return!1;l=c;for(var y=0;y<u;y++)t[y](c);return v}}(r,n.duration,n.iterations||1/0,n.direction||1,!!n.alternate,n.fill||1):null}var L=function(){function t(r,e){var i=arguments.length>2&&void 0!==arguments[2]?arguments[2]:{};n(this,t),this._id=0,this._running=!1,this._rollingBack=!1,this._animations=r,this.duration=e.duration,this.alternate=e.alternate,this.fill=e.fill,this.iterations=e.iterations,this.direction=i.direction||1,this.speed=i.speed||1,this.fps=i.fps||100,this.offset=i.offset||0,this.rollbackStartOffset=0}return e(t,[{key:"_rollback",value:function(){var t=this,n=1/0,r=null;this.rollbackStartOffset=this.offset,this._rollingBack||(this._rollingBack=!0,this._running=!0);this._id=window.requestAnimationFrame((function e(i){if(t._rollingBack){null==r&&(r=i);var o=i-r,u=t.rollbackStartOffset-o,a=Math.round(u*t.speed);if(a>t.duration&&n!=1/0){var l=!!t.alternate&&a/t.duration%2>1,f=a%t.duration;a=(f+=l?t.duration:0)||t.duration}var s=t.fps?1e3/t.fps:0,c=Math.max(0,a);if(c<n-s){t.offset=c,n=c;for(var h=t._animations,v=h.length,y=0;y<v;y++)h[y](c,t.direction)}var d=!1;if(t.iterations>0&&-1===t.fill){var g=t.iterations*t.duration,p=g==a;a=p?0:a,t.offset=p?0:t.offset,d=a>g}a>0&&t.offset>=a&&!d?t._id=window.requestAnimationFrame(e):t.stop()}}))}},{key:"_start",value:function(){var t=this,n=arguments.length>0&&void 0!==arguments[0]?arguments[0]:0,r=-1/0,e=null,i={},o=function o(u){t._running=!0,null==e&&(e=u);var a=Math.round((u-e+n)*t.speed),l=t.fps?1e3/t.fps:0;if(a>r+l&&!t._rollingBack){t.offset=a,r=a;for(var f=t._animations,s=f.length,c=0,h=0;h<s;h++)i[h]?c++:(i[h]=f[h](a,t.direction),i[h]&&c++);if(c===s)return void t._stop()}t._id=window.requestAnimationFrame(o)};this._id=window.requestAnimationFrame(o)}},{key:"_stop",value:function(){this._id&&window.cancelAnimationFrame(this._id),this._running=!1,this._rollingBack=!1}},{key:"play",value:function(){!this._rollingBack&&this._running||(this._rollingBack=!1,this.rollbackStartOffset>this.duration&&(this.offset=this.rollbackStartOffset-(this.rollbackStartOffset-this.offset)%this.duration,this.rollbackStartOffset=0),this._start(this.offset))}},{key:"stop",value:function(){this._stop(),this.offset=0,this.rollbackStartOffset=0;var t=this.direction,n=this._animations;window.requestAnimationFrame((function(){for(var r=0;r<n.length;r++)n[r](0,t)}))}},{key:"reachedToEnd",value:function(){return this.iterations>0&&this.offset>=this.iterations*this.duration}},{key:"restart",value:function(){this._stop(),this.offset=0,this._start()}},{key:"pause",value:function(){this._stop()}},{key:"reverse",value:function(){this.direction=-this.direction}}],[{key:"build",value:function(n,r){return(n=function(t,n){if(M=n,!t||!t.root||!Array.isArray(t.animations))return null;for(var r=document.getElementsByTagName("svg"),e=!1,i=0;i<r.length;i++)if(r[i].id===t.root&&!r[i].svgatorAnimation){(e=r[i]).svgatorAnimation=!0;break}if(!e)return null;var o=t.animations.map((function(t){return z(e,t)})).filter((function(t){return!!t}));return o.length?{element:e,animations:o,animationSettings:t.animationSettings,options:t.options||void 0}:null}(n,r))?{el:n.element,options:n.options||{},player:new t(n.animations,n.animationSettings,n.options)}:null}}]),t}();!function(){for(var t=0,n=["ms","moz","webkit","o"],r=0;r<n.length&&!window.requestAnimationFrame;++r)window.requestAnimationFrame=window[n[r]+"RequestAnimationFrame"],window.cancelAnimationFrame=window[n[r]+"CancelAnimationFrame"]||window[n[r]+"CancelRequestAnimationFrame"];window.requestAnimationFrame||(window.requestAnimationFrame=function(n){var r=Date.now(),e=Math.max(0,16-(r-t)),i=window.setTimeout((function(){n(r+e)}),e);return t=r+e,i},window.cancelAnimationFrame=window.clearTimeout)}();var D=/\.0+$/g;function Q(t){return Number.isInteger(t)?t+"":t.toFixed(6).replace(D,"")}function U(t){var n=arguments.length>1&&void 0!==arguments[1]?arguments[1]:" ";return t&&t.length?t.map(Q).join(n):""}function V(t){return t?null==t.a||t.a>=1?"rgb("+t.r+","+t.g+","+t.b+")":"rgba("+t.r+","+t.g+","+t.b+","+t.a+")":"transparent"}var $={f:null,i:function(t,n,r){return 0===t?n:1===t?r:{x:w(t,n.x,r.x),y:w(t,n.y,r.y)}},u:function(t,n){return function(r){var e=n(r);t.setAttribute("rx",Q(e.x)),t.setAttribute("ry",Q(e.y))}}},G={f:null,i:function(t,n,r){return 0===t?n:1===t?r:{width:w(t,n.width,r.width),height:w(t,n.height,r.height)}},u:function(t,n){return function(r){var e=n(r);t.setAttribute("width",Q(e.width)),t.setAttribute("height",Q(e.height))}}},H=Math.sin,Y=Math.cos,Z=Math.acos,J=Math.asin,K=Math.tan,W=Math.atan2,X=Math.PI/180,tt=180/Math.PI,nt=Math.sqrt,rt=function(){function t(){var r=arguments.length>0&&void 0!==arguments[0]?arguments[0]:1,e=arguments.length>1&&void 0!==arguments[1]?arguments[1]:0,i=arguments.length>2&&void 0!==arguments[2]?arguments[2]:0,o=arguments.length>3&&void 0!==arguments[3]?arguments[3]:1,u=arguments.length>4&&void 0!==arguments[4]?arguments[4]:0,a=arguments.length>5&&void 0!==arguments[5]?arguments[5]:0;n(this,t),this.m=[r,e,i,o,u,a],this.i=null,this.w=null,this.s=null}return e(t,[{key:"determinant",get:function(){var t=this.m;return t[0]*t[3]-t[1]*t[2]}},{key:"isIdentity",get:function(){if(null===this.i){var t=this.m;this.i=1===t[0]&&0===t[1]&&0===t[2]&&1===t[3]&&0===t[4]&&0===t[5]}return this.i}},{key:"point",value:function(t,n){var r=this.m;return{x:r[0]*t+r[2]*n+r[4],y:r[1]*t+r[3]*n+r[5]}}},{key:"translateSelf",value:function(){var t=arguments.length>0&&void 0!==arguments[0]?arguments[0]:0,n=arguments.length>1&&void 0!==arguments[1]?arguments[1]:0;if(!t&&!n)return this;var r=this.m;return r[4]+=r[0]*t+r[2]*n,r[5]+=r[1]*t+r[3]*n,this.w=this.s=this.i=null,this}},{key:"rotateSelf",value:function(){var t=arguments.length>0&&void 0!==arguments[0]?arguments[0]:0;if(t%=360){var n=H(t*=X),r=Y(t),e=this.m,i=e[0],o=e[1];e[0]=i*r+e[2]*n,e[1]=o*r+e[3]*n,e[2]=e[2]*r-i*n,e[3]=e[3]*r-o*n,this.w=this.s=this.i=null}return this}},{key:"scaleSelf",value:function(){var t=arguments.length>0&&void 0!==arguments[0]?arguments[0]:1,n=arguments.length>1&&void 0!==arguments[1]?arguments[1]:1;if(1!==t||1!==n){var r=this.m;r[0]*=t,r[1]*=t,r[2]*=n,r[3]*=n,this.w=this.s=this.i=null}return this}},{key:"skewSelf",value:function(t,n){if(n%=360,(t%=360)||n){var r=this.m,e=r[0],i=r[1],o=r[2],u=r[3];t&&(t=K(t*X),r[2]+=e*t,r[3]+=i*t),n&&(n=K(n*X),r[0]+=o*n,r[1]+=u*n),this.w=this.s=this.i=null}return this}},{key:"resetSelf",value:function(){var t=arguments.length>0&&void 0!==arguments[0]?arguments[0]:1,n=arguments.length>1&&void 0!==arguments[1]?arguments[1]:0,r=arguments.length>2&&void 0!==arguments[2]?arguments[2]:0,e=arguments.length>3&&void 0!==arguments[3]?arguments[3]:1,i=arguments.length>4&&void 0!==arguments[4]?arguments[4]:0,o=arguments.length>5&&void 0!==arguments[5]?arguments[5]:0,u=this.m;return u[0]=t,u[1]=n,u[2]=r,u[3]=e,u[4]=i,u[5]=o,this.w=this.s=this.i=null,this}},{key:"recomposeSelf",value:function(){var t=arguments.length>0&&void 0!==arguments[0]?arguments[0]:null,n=arguments.length>1&&void 0!==arguments[1]?arguments[1]:null,r=arguments.length>2&&void 0!==arguments[2]?arguments[2]:null,e=arguments.length>3&&void 0!==arguments[3]?arguments[3]:null,i=arguments.length>4&&void 0!==arguments[4]?arguments[4]:null;return this.isIdentity||this.resetSelf(),t&&(t.x||t.y)&&this.translateSelf(t.x,t.y),n&&this.rotateSelf(n),r&&(r.x&&this.skewSelf(r.x,0),r.y&&this.skewSelf(0,r.y)),!e||1===e.x&&1===e.y||this.scaleSelf(e.x,e.y),i&&(i.x||i.y)&&this.translateSelf(i.x,i.y),this}},{key:"decompose",value:function(){var t=arguments.length>0&&void 0!==arguments[0]?arguments[0]:0,n=arguments.length>1&&void 0!==arguments[1]?arguments[1]:0,r=this.m,e=r[0]*r[0]+r[1]*r[1],i=[[r[0],r[1]],[r[2],r[3]]],o=nt(e);if(0===o)return{origin:{x:r[4],y:r[5]},translate:{x:t,y:n},scale:{x:0,y:0},skew:{x:0,y:0},rotate:0};i[0][0]/=o,i[0][1]/=o;var u=r[0]*r[3]-r[1]*r[2]<0;u&&(o=-o);var a=i[0][0]*i[1][0]+i[0][1]*i[1][1];i[1][0]-=i[0][0]*a,i[1][1]-=i[0][1]*a;var l=nt(i[1][0]*i[1][0]+i[1][1]*i[1][1]);if(0===l)return{origin:{x:r[4],y:r[5]},translate:{x:t,y:n},scale:{x:o,y:0},skew:{x:0,y:0},rotate:0};i[1][0]/=l,i[1][1]/=l,a/=l;var f=0;return i[1][1]<0?(f=Z(i[1][1])*tt,i[0][1]<0&&(f=360-f)):f=J(i[0][1])*tt,u&&(f=-f),a=W(a,nt(i[0][0]*i[0][0]+i[0][1]*i[0][1]))*tt,u&&(a=-a),{origin:{x:r[4],y:r[5]},translate:{x:t,y:n},scale:{x:o,y:l},skew:{x:a,y:0},rotate:f}}},{key:"toString",value:function(){return null===this.s&&(this.s="matrix("+this.m.map(it).join(" ")+")"),this.s}}]),t}(),et=/\.0+$/;function it(t){return Number.isInteger(t)?t:t.toFixed(14).replace(et,"")}function ot(t,n,r){return t+(n-t)*r}function ut(t,n,r){var e=arguments.length>3&&void 0!==arguments[3]&&arguments[3],i={x:ot(t.x,n.x,r),y:ot(t.y,n.y,r)};return e&&(i.a=at(t,n)),i}function at(t,n){return Math.atan2(n.y-t.y,n.x-t.x)}Object.freeze({M:2,L:2,Z:0,H:1,V:1,C:6,Q:4,T:2,S:4,A:7});var lt={},ft=null;function st(n){var r=function(){if(ft)return ft;if("object"!==("undefined"==typeof document?"undefined":t(document)))return{};var n=document.createElementNS("http://www.w3.org/2000/svg","svg");return n.style.position="absolute",n.style.opacity="0.01",n.style.zIndex="-9999",n.style.left="-9999px",n.style.width="1px",n.style.height="1px",ft={svg:n}}().svg;if(!r)return function(t){return null};var e=document.createElementNS(r.namespaceURI,"path");e.setAttributeNS(null,"d",n),e.setAttributeNS(null,"fill","none"),e.setAttributeNS(null,"stroke","none"),r.appendChild(e);var i=e.getTotalLength();return function(t){var n=e.getPointAtLength(i*t);return{x:n.x,y:n.y}}}function ct(t){return lt[t]?lt[t]:lt[t]=st(t)}function ht(t,n,r,e){if(!t||!e)return!1;var i=["M",t.x,t.y];if(n&&r&&(i.push("C"),i.push(n.x),i.push(n.y),i.push(r.x),i.push(r.y)),n?!r:r){var o=n||r;i.push("Q"),i.push(o.x),i.push(o.y)}return n||r||i.push("L"),i.push(e.x),i.push(e.y),i.join(" ")}function vt(t,n,r,e){var i=arguments.length>4&&void 0!==arguments[4]?arguments[4]:1,o=ht(t,n,r,e),u=ct(o);try{return u(i)}catch(t){return null}}function yt(t,n,r,e){var i=1-e;return i*i*t+2*i*e*n+e*e*r}function dt(t,n,r,e){return 2*(1-e)*(n-t)+2*e*(r-n)}function gt(t,n,r,e){var i=arguments.length>4&&void 0!==arguments[4]&&arguments[4],o=vt(t,n,null,r,e);return o||(o={x:yt(t.x,n.x,r.x,e),y:yt(t.y,n.y,r.y,e)}),i&&(o.a=pt(t,n,r,e)),o}function pt(t,n,r,e){return Math.atan2(dt(t.y,n.y,r.y,e),dt(t.x,n.x,r.x,e))}function mt(t,n,r,e,i){var o=i*i;return i*o*(e-t+3*(n-r))+3*o*(t+r-2*n)+3*i*(n-t)+t}function bt(t,n,r,e,i){var o=1-i;return 3*(o*o*(n-t)+2*o*i*(r-n)+i*i*(e-r))}function wt(t,n,r,e,i){var o=arguments.length>5&&void 0!==arguments[5]&&arguments[5],u=vt(t,n,r,e,i);return u||(u={x:mt(t.x,n.x,r.x,e.x,i),y:mt(t.y,n.y,r.y,e.y,i)}),o&&(u.a=xt(t,n,r,e,i)),u}function xt(t,n,r,e,i){return Math.atan2(bt(t.y,n.y,r.y,e.y,i),bt(t.x,n.x,r.x,e.x,i))}function kt(t,n,r){var e=arguments.length>3&&void 0!==arguments[3]&&arguments[3];if(_t(n)){if(St(r))return gt(n,r.start,r,t,e)}else if(_t(r)){if(n.end)return gt(n,n.end,r,t,e)}else{if(n.end)return r.start?wt(n,n.end,r.start,r,t,e):gt(n,n.end,r,t,e);if(r.start)return gt(n,r.start,r,t,e)}return ut(n,r,t,e)}function At(t,n,r){var e=kt(t,n,r,!0);return e.a=function(t){var n=arguments.length>1&&void 0!==arguments[1]&&arguments[1];return n?t+Math.PI:t}(e.a)/p,e}function _t(t){return!t.type||"corner"===t.type}function St(t){return null!=t.start&&!_t(t)}var Ot=new rt;var Mt={f:Q,i:b},jt={f:Q,i:function(t,n,r){var e=b(t,n,r);return e<=0?0:e>=1?1:e}};function Ft(t,n,r,e,i,o,u,a){return n=function(t,n,r){for(var e,i,o,u=t.length-1,a={},l=0;l<=u;l++)(e=t[l]).e&&(e.e=n(e.e)),e.v&&"g"===(i=e.v).t&&i.r&&(o=r.getElementById(i.r))&&(a[i.r]=o.querySelectorAll("stop"));return a}(t,e,a),function(e){var i,o=r(e,t,Pt);return o?"c"===o.t?V(o.v):"g"===o.t?(n[o.r]&&function(t,n){for(var r=0,e=t.length;r<e;r++)t[r].setAttribute("stop-color",V(n[r]))}(n[o.r],o.v),(i=o.r)?"url(#"+i+")":"none"):"none":"none"}}function Pt(t,n,r){if(0===t)return n;if(1===t)return r;if(n&&r){var e=n.t;if(e===r.t)switch(n.t){case"c":return{t:e,v:A(t,n.v,r.v)};case"g":if(n.r===r.r)return{t:e,v:_(t,n.v,r.v),r:n.r}}}return m(t,n,r)}var Bt={fill:Ft,"fill-opacity":jt,stroke:Ft,"stroke-opacity":jt,"stroke-width":Mt,"stroke-dashoffset":{f:Q,i:b},"stroke-dasharray":{f:function(t){var n=arguments.length>1&&void 0!==arguments[1]?arguments[1]:" ";return t&&t.length>0&&(t=t.map((function(t){return Math.floor(1e4*t)/1e4}))),U(t,n)},i:function(t,n,r){var e,i,o,u=n.length,a=r.length;if(u!==a)if(0===u)n=S(u=a,0);else if(0===a)a=u,r=S(u,0);else{var l=(o=(e=u)*(i=a)/function(t,n){for(var r;n;)r=n,n=t%n,t=r;return t||1}(e,i))<0?-o:o;n=O(n,Math.floor(l/u)),r=O(r,Math.floor(l/a)),u=a=l}for(var f=[],s=0;s<u;s++)f.push(g(w(t,n[s],r[s]),6));return f}},opacity:jt,transform:function(n,r,e,i){if(!(n=function(n,r){if(!n||"object"!==t(n))return null;var e=!1;for(var i in n)n.hasOwnProperty(i)&&(n[i]&&n[i].length?(n[i].forEach((function(t){t.e&&(t.e=r(t.e))})),e=!0):delete n[i]);return e?n:null}(n,i)))return null;var o=function(t,i,o){var u=arguments.length>3&&void 0!==arguments[3]?arguments[3]:null;return n[t]?e(i,n[t],o):r&&r[t]?r[t]:u};return r&&r.a&&n.o?function(t){var r=e(t,n.o,At);return Ot.recomposeSelf(r,o("r",t,b,0)+r.a,o("k",t,x),o("s",t,x),o("t",t,x)).toString()}:function(t){return Ot.recomposeSelf(o("o",t,kt,null),o("r",t,b,0),o("k",t,x),o("s",t,x),o("t",t,x)).toString()}},r:Mt,"#size":G,"#radius":$,_:function(t,n){if(Array.isArray(t))for(var r=0;r<t.length;r++)this[t[r]]=n;else this[t]=n}};return function(t){!function(t,n){if("function"!=typeof n&&null!==n)throw new TypeError("Super expression must either be null or a function");t.prototype=Object.create(n&&n.prototype,{constructor:{value:t,writable:!0,configurable:!0}}),n&&o(t,n)}(u,t);var r=a(u);function u(){return n(this,u),r.apply(this,arguments)}return e(u,null,[{key:"build",value:function(t){var n=l(i(u),"build",this).call(this,t,Bt);n.el,n.options;var r=n.player;return function(t,n,r){t.play()}(r),r}}]),u}(L)}));
__SVGATOR_PLAYER__.build({"root":"ee9WxuyhKCm1","animations":[{"duration":3000,"direction":1,"iterations":1,"fill":1,"alternate":false,"speed":1,"elements":{"ee9WxuyhKCm2":{"transform":{"data":{"o":{"x":291.31199999999956,"y":298.999999999999,"type":"corner"}},"keys":{"s":[{"t":0,"v":{"x":0.05,"y":0.05}},{"t":300,"v":{"x":0.5,"y":0.5}},{"t":500,"v":{"x":0.35,"y":0.35}},{"t":800,"v":{"x":1,"y":1}}]}}},"ee9WxuyhKCm3":{"transform":{"data":{"t":{"x":-384.1719970703125,"y":-493.2489929199219}},"keys":{"o":[{"t":800,"v":{"x":236.0630070803125,"y":669.2307489199219,"type":"corner"}},{"t":1200,"v":{"x":384.1719970703125,"y":493.2489929199219,"type":"corner"}}]}}},"ee9WxuyhKCm5":{"transform":{"data":{"t":{"x":-99.95330429077148,"y":-213.4675064086914}},"keys":{"o":[{"t":800,"v":{"x":-76.0284517092285,"y":391.81250140369167,"type":"corner"}},{"t":1200,"v":{"x":99.95330429077148,"y":213.4675064086914,"type":"corner"}}]}}},"ee9WxuyhKCm7":{"transform":{"data":{"t":{"x":-157.00834274291992,"y":-291.9915008544922}},"keys":{"o":[{"t":1200,"v":{"x":-120.76088121708011,"y":563.8675020944922,"type":"corner"}},{"t":1800,"v":{"x":157.00834274291992,"y":291.9915008544922,"type":"corner"}}]}}},"ee9WxuyhKCm9":{"transform":{"data":{"t":{"x":-299.99349212646484,"y":-436.4139862060547}},"keys":{"o":[{"t":1200,"v":{"x":17.64913612646484,"y":711.0228802060548,"type":"corner"}},{"t":1800,"v":{"x":299.99349212646484,"y":436.4139862060547,"type":"corner"}}]}}},"ee9WxuyhKCm11":{"transform":{"data":{"t":{"x":-258.17250061,"y":-339.14100647000004}},"keys":{"o":[{"t":1800,"v":{"x":-243.91688060999996,"y":840.1023577900003,"type":"corner"}},{"t":2200,"v":{"x":258.17250061,"y":339.14100647000004,"type":"corner"}}]}}},"ee9WxuyhKCm16":{"opacity":[{"t":2200,"v":0},{"t":2980,"v":1}]}}}],"options":{"start":"load","hover":"freeze","click":"freeze","scroll":25,"font":"embed","exportedIds":"unique","svgFormat":"animated","title":"StockPe Logo white"},"animationSettings":{"duration":3000,"direction":1,"iterations":1,"fill":1,"alternate":false,"speed":1}})]]></script></svg>